<?xml version="1.0" encoding="UTF-8"?>
<svg id="Layer_1" data-name="Layer 1" xmlns="http://www.w3.org/2000/svg" version="1.1" viewBox="0 0 1000 730.74">
  <defs>
    <style>
      .cls-1 {
        fill: #3a82ff;
        stroke-width: 0px;
      }
    </style>
  </defs>
  <path class="cls-1" d="M385.94,730.7h-179.25c-1.76.04-4.32.07-7.39-.03-70.28-2.16-120.69-57.78-134.83-73.38C53.24,644.92-3.99,581.74.22,488.99c5.91-130.15,128.3-196.44,134.09-199.45-1.73-21.74-6.09-108.46,54.7-186.83C265.38,4.26,381.46.31,397.72.04c29-.49,106.75,2.93,175.05,60.59,44.33,37.44,65.01,81.13,74.06,104.35,56.45-43.24,135.34-37.49,181.78,10.1,41.04,42.07,49.27,109.2,18.51,163.26,91.15,29.56,152.5,108.77,152.88,192.72.45,98.6-83.44,160.66-90.61,165.79-28.11,20.12-55.93,29.34-74.9,33.89-35.3-22.48-80.05-55.85-124.55-103.74-46.74-50.3-77.63-99.86-97.62-138.02h121.18c-62.65-56.57-128.09-120.34-194.4-191.88-52.47-56.6-100.04-112.19-143.07-165.79-32.4,64.75-69.22,132.69-111.09,202.82-32.86,55.05-65.96,106.64-98.71,154.82,43.84.01,87.69.02,131.53.03,4.44,37.36,12.28,81.02,26.09,128.76,12.55,43.38,27.44,81.17,42.08,112.96Z"/>
</svg>