<?xml version="1.0" encoding="utf-8" ?>
<svg baseProfile="full" height="456px" version="1.1" viewBox="6 28 500 456" width="500px" xmlns="http://www.w3.org/2000/svg" xmlns:ev="http://www.w3.org/2001/xml-events" xmlns:xlink="http://www.w3.org/1999/xlink"><defs /><path d="M506 307 256 28 6 307 120 484H392ZM187 362Q186 361 185 360L172 349L147 325Q137 314 128 306L127 304Q122 300 113 293L110 291L131 300L153 311Q173 323 192 340L196 343Q204 351 214 362L226 378L219 376Q210 374 201 370ZM328 282Q328 286 328 290L326 306Q324 313 322 319Q314 295 300 274L311 258Q303 236 286 222L264 230Q251 217 236 207L235 206Q227 201 219 197Q230 194 242 194L257 196L270 200L281 205Q286 208 290 211L300 220Q306 225 309 230L316 240L322 253L326 268ZM309 343Q306 347 301.5 351.5Q297 356 291 361Q270 377 243 379L236 367L251 345L243 320L216 311L198 325L189 317L209 302L208 272L187 257L163 265Q159 282 162 299Q156 296 149 293Q147 260 166 233Q173 222 183 214Q187 211 192 208L193 207L190 205Q172 192 154 183L174 189L192 196L217 209Q234 220 249 232L258 241Q277 258 291 279Q298 290 304 301L311 316Q314 324 317 331Q314 336 311 340ZM203 215Q226 233 242 252V253L215 262L194 247V221L195 220Q200 217 203 215ZM273 292Q273 292 274 292H275Q290 314 298 338Q293 344 287 350L262 342L254 316L271 292ZM356 420 332 444H153L121 411H347ZM390 231V384L366 409L358 399V197Z" transform="scale(1, -1) translate(0, -512)" /></svg>