<?xml version="1.0" encoding="utf-8" ?>
<svg baseProfile="full" height="456px" version="1.1" viewBox="6 28 500 456" width="500px" xmlns="http://www.w3.org/2000/svg" xmlns:ev="http://www.w3.org/2001/xml-events" xmlns:xlink="http://www.w3.org/1999/xlink"><defs /><path d="M506 307 256 28 6 307 120 484H392ZM236 297Q238 303 233.0 306.5Q228 310 223.5 308.5Q219 307 217 302L206 271Q205 269 204.0 268.5Q203 268 200 268H195Q184 276 180 289L167 341Q166 345 162.0 346.5Q158 348 154.5 345.5Q151 343 152 338L164 289L160 288L136 350Q134 355 130.0 355.5Q126 356 123.5 353.0Q121 350 123 345L140 298L144 283L138 280L111 325Q109 328 106.5 328.5Q104 329 101 327Q95 324 98 317L101 313Q115 291 125 272L118 268L97 295Q92 301 86.5 296.5Q81 292 85 285L130 219Q143 200 167 200Q182 199 194.0 207.5Q206 216 211 230ZM313 220Q350 210 383.5 229.5Q417 249 427 286Q437 324 417.5 357.5Q398 391 361.0 401.0Q324 411 290.5 391.5Q257 372 247.0 335.0Q237 298 256.5 264.0Q276 230 313 220ZM293 268Q303 276 314 285L344 277L354 252L339 229Q315 229 295 241ZM383 378Q403 364 412 342L397 320L371 319L352 342L359 368ZM288 376Q307 390 330 392L347 371L340 345L312 335L289 349ZM363 294 371 307V306L398 308L415 287Q412 278 405.0 267.0Q398 256 390 250L365 256L355 281ZM286 278 260 285Q253 307 258 329L283 339L305 324L307 294ZM245 432Q211 443 175.0 435.0Q139 427 107 404Q170 434 229 415Q250 409 270 397Q280 405 291 409Q269 425 245 432ZM243 360Q247 370 253 379Q235 390 216 396Q182 407 146.0 399.0Q110 391 78 368Q141 398 201 379Q222 372 243 360Z"  transform="scale(1, -1) translate(0, -512)" /></svg>