<?xml version="1.0" encoding="utf-8" ?>
<svg baseProfile="full" height="456px" version="1.1" viewBox="6 28 500 456" width="500px" xmlns="http://www.w3.org/2000/svg" xmlns:ev="http://www.w3.org/2001/xml-events" xmlns:xlink="http://www.w3.org/1999/xlink"><defs /><path d="M506 307 256 28 6 307 120 484H392ZM466 308 390 367 415 307 390 248ZM122 363 46 307 122 252 97 307ZM296 349 322 325 365 306 372 320 330 348 303 389H278L258 363L238 389H213L186 348L144 320L151 306L194 325L220 349L228 329L225 310L161 278L193 194H211L198 262L254 280H258H262L318 262L305 194H323L355 278L291 310L288 329ZM272 403Q283 414 283 431V434Q282 443 276.0 449.0Q270 455 260.5 456.0Q251 457 243.5 452.0Q236 447 234 439Q229 418 245 403Q251 397 258.0 397.0Q265 397 272 403Z"  transform="scale(1, -1) translate(0, -512)" /></svg>