<?xml version="1.0" encoding="utf-8" ?>
<svg baseProfile="full" height="456px" version="1.1" viewBox="6 28 500 456" width="500px" xmlns="http://www.w3.org/2000/svg" xmlns:ev="http://www.w3.org/2001/xml-events" xmlns:xlink="http://www.w3.org/1999/xlink"><defs /><path d="M506 307 256 28 6 307 120 484H392ZM192 202H155V183H192ZM164 311V202H183V226L241 243L208 253L183 245V268L331 225V202H350V311H331V297L254 275L286 265L331 278V245L183 288V311ZM322 202V183H359V202ZM157 320H197L240 395H200ZM256 320 298 395H258L215 320ZM274 320H315L357 395H317ZM139 320 182 395H116V320ZM396 395H373L330 320H396ZM174 404Q179 404 183.5 408.0Q188 412 188.0 418.0Q188 424 183.5 428.0Q179 432 173.5 432.0Q168 432 164.0 428.0Q160 424 160.0 418.0Q160 412 164.0 408.0Q168 404 174 404ZM354 418Q354 424 350.0 428.0Q346 432 340.5 432.0Q335 432 330.5 428.0Q326 424 326.0 418.0Q326 412 330.5 408.0Q335 404 340.5 404.0Q346 404 350.0 408.0Q354 412 354 418Z"  transform="scale(1, -1) translate(0, -512)" /></svg>