<?xml version="1.0" encoding="utf-8" ?>
<svg baseProfile="full" height="456px" version="1.1" viewBox="6 28 500 456" width="500px" xmlns="http://www.w3.org/2000/svg" xmlns:ev="http://www.w3.org/2001/xml-events" xmlns:xlink="http://www.w3.org/1999/xlink"><defs /><path d="M506 307 256 28 6 307 120 484H392ZM279 238 257 259 227 228Q212 213 191.0 213.0Q170 213 155.0 228.0Q140 243 140.0 264.5Q140 286 155 301L175 322L205 292L236 426L130 320Q106 296 106.0 262.0Q106 228 130.0 204.0Q154 180 187.5 180.0Q221 180 245 204ZM370 363 362 355Q360 352 360.0 348.5Q360 345 362.5 343.0Q365 341 368.5 341.0Q372 341 374 343L426 396L414 407L385 378Q373 386 359.0 384.5Q345 383 334 373Q320 359 322 339L260 276L296 240L359 303H363Q380 303 392 315Q400 323 402.5 334.5Q405 346 401 357L383 346Q384 336 377.5 329.5Q371 323 363.0 323.0Q355 323 349.0 329.0Q343 335 343.0 343.5Q343 352 348.5 358.0Q354 364 363 364Q367 364 370 363Z"  transform="scale(1, -1) translate(0, -512)" /></svg>