<?xml version="1.0" encoding="utf-8" ?>
<svg baseProfile="full" height="456px" version="1.1" viewBox="6 28 500 456" width="500px" xmlns="http://www.w3.org/2000/svg" xmlns:ev="http://www.w3.org/2001/xml-events" xmlns:xlink="http://www.w3.org/1999/xlink"><defs /><path d="M256 28 506 307 392 484H120L6 307ZM373 279Q391 267 413 269L424 270L308 168Q286 148 256.0 148.0Q226 148 204 168L88 270L99 269Q121 267 139 279L149 286Q161 295 167 299Q202 320 226 306Q234 302 238.5 294.5Q243 287 243 276Q248 286 248 296V298Q249 312 241.5 324.5Q234 337 221 341Q192 351 159 325Q154 320 144 311L132 300Q123 292 111.5 289.5Q100 287 88 291L162 382L148 412L143 379L130 363L140 442L204 392Q229 401 256.0 401.0Q283 401 308 392L372 442L382 363L369 379L364 413L350 382L424 291Q412 287 400.5 289.5Q389 292 380 300L368 311Q358 321 353 325Q320 352 291 341Q278 337 270.5 324.5Q263 312 264 298V296Q264 286 269 276Q269 287 273.5 294.5Q278 302 286 307Q310 320 345 299Q351 295 363 286ZM321 274Q311 280 300.5 276.5Q290 273 285 262L283 257L325 272ZM227 262Q222 273 211.5 276.5Q201 280 191 274L187 272L229 257ZM262 170Q281 172 294 186L330 223L293 232Q280 235 274.0 246.0Q268 257 256.0 257.0Q244 257 237.5 246.0Q231 235 219 232L182 223L218 186Q231 172 250 170L232 195H280Z"  transform="scale(1, -1) translate(0, -512)" /></svg>