<?xml version="1.0" encoding="utf-8" ?>
<svg baseProfile="full" height="456px" version="1.1" viewBox="6 28 500 456" width="500px" xmlns="http://www.w3.org/2000/svg" xmlns:ev="http://www.w3.org/2001/xml-events" xmlns:xlink="http://www.w3.org/1999/xlink"><defs /><path d="M256 28 506 307 392 484H120L6 307ZM401 280Q403 270 407 262Q409 257 406.0 252.0Q403 247 397 246Q345 227 317 220Q291 214 269 210Q241 206 213 207H209L179 165L84 260Q96 283 125 294Q131 296 138 298Q156 301 174.0 293.5Q192 286 203 270L211 257L206 271Q205 277 202 282Q215 310 247 314Q266 317 283 308Q290 304 296 297L298 295L294 303Q289 316 285 335L275 374Q272 383 268 393L267 394Q265 398 258 405L254 409Q244 403 236.5 401.0Q229 399 219 400Q216 400 213 398L198 391Q192 389 188.0 393.0Q184 397 187 402L189 406L187 407Q181 410 180.0 412.0Q179 414 180 420L182 425L187 440Q190 448 199 448L256 446Q263 446 270 441L292 426L305 416Q326 400 344 381Q366 360 384 334Q391 324 395 308ZM239 236Q245 234 252 233Q269 231 283.5 239.0Q298 247 300 261Q295 252 284.5 245.5Q274 239 260 236Q250 235 239 236Z"  transform="scale(1, -1) translate(0, -512)" /></svg>