<?xml version="1.0" encoding="utf-8" ?>
<svg baseProfile="full" height="456px" version="1.1" viewBox="6 28 500 456" width="500px" xmlns="http://www.w3.org/2000/svg" xmlns:ev="http://www.w3.org/2001/xml-events" xmlns:xlink="http://www.w3.org/1999/xlink"><defs /><path d="M506 307 256 28 6 307 120 484H392ZM314 273 321 272V257L243 240V196Q233 192 226.5 183.0Q220 174 220 163Q220 148 230.5 137.5Q241 127 256.0 127.0Q271 127 281.5 137.5Q292 148 292 163Q292 174 285.5 183.0Q279 192 269 196V215L416 256V282L191 321V336L269 353V412H298L256 462L214 412H243V378L96 337V311L200 293V292ZM244 163Q244 158 247.5 154.5Q251 151 256.0 151.0Q261 151 264.5 154.5Q268 158 268.0 163.0Q268 168 264.5 171.0Q261 174 256.0 174.5Q251 175 247.5 171.5Q244 168 244 163ZM362 359 382 379 369 393 348 373 328 393 315 379 335 359 315 339 328 326 348 346 369 326 382 339ZM201 213 181 233 201 253 188 266 167 246 147 266 134 253 154 233 134 213 147 199 167 219 188 199Z"  transform="scale(1, -1) translate(0, -512)" /></svg>