<?xml version="1.0" encoding="utf-8" ?>
<svg baseProfile="full" height="456px" version="1.1" viewBox="6 28 500 456" width="500px" xmlns="http://www.w3.org/2000/svg" xmlns:ev="http://www.w3.org/2001/xml-events" xmlns:xlink="http://www.w3.org/1999/xlink"><defs /><path d="M256 28 506 307 392 484H120L6 307ZM398 276Q404 276 411 277L416 290L408 302L392 303L383 292L385 285L367 283Q357 292 353 305H360Q362 301 364 297L378 296L387 307L383 322L370 328L358 320Q358 317 358 313L297 315L351 320V322Q352 336 361 348L368 347L372 334L385 329L399 337V351L388 360Q384 359 380 357L315 358L395 368Q400 369 404 368Q424 367 438.0 352.0Q452 337 450.5 316.5Q449 296 434.0 282.5Q419 269 398 270L326 279ZM405 344V337L418 327L431 331L436 344Q429 354 418 359L406 351ZM413 306Q414 306 414 305L421 294L435 293Q443 303 444 315L433 324L419 321ZM362 203Q356 200 349 200Q337 200 329 208L273 257L204 273L142 211L60 285Q66 292 76 292Q82 292 88 289L136 259L206 366L111 361L108 379L254 406L284 368L243 312L302 284L362 203ZM307 396Q300 389 292.0 388.5Q284 388 277 395Q259 413 263 438Q264 448 272.5 454.0Q281 460 291.5 459.5Q302 459 309.5 452.5Q317 446 318 435V431Q319 410 307 396Z"  transform="scale(1, -1) translate(0, -512)" /></svg>