<?xml version="1.0" encoding="utf-8" ?>
<svg baseProfile="full" height="456px" version="1.1" viewBox="6 28 500 456" width="500px" xmlns="http://www.w3.org/2000/svg" xmlns:ev="http://www.w3.org/2001/xml-events" xmlns:xlink="http://www.w3.org/1999/xlink"><defs /><path d="M256 28 506 307 392 484H120L6 307ZM251 225Q301 247 315 288Q328 248 378 225Q332 206 315 163Q295 209 251 225ZM315 442Q324 413 360 397Q327 384 315 353Q301 386 270 397Q305 413 315 442ZM78 318Q166 357 191 430Q216 358 305 318Q222 284 191 205Q156 289 78 318Z"  transform="scale(1, -1) translate(0, -512)" /></svg>