<?xml version="1.0" encoding="utf-8" ?>
<svg baseProfile="full" height="456px" version="1.1" viewBox="6 28 500 456" width="500px" xmlns="http://www.w3.org/2000/svg" xmlns:ev="http://www.w3.org/2001/xml-events" xmlns:xlink="http://www.w3.org/1999/xlink"><defs /><path d="M506 307 256 28 6 307 120 484H392ZM195 403H134V367H195ZM316 403V367H377V403ZM316 282Q316 256 298.5 238.5Q281 221 255.5 221.0Q230 221 212.5 238.5Q195 256 195 282V347H134V282Q134 248 150.5 220.5Q167 193 194.5 176.5Q222 160 255.5 160.0Q289 160 316.5 176.5Q344 193 360.5 220.5Q377 248 377 282V347H316ZM284 359 303 389H252L262 440L208 356H259L248 303Z"  transform="scale(1, -1) translate(0, -512)" /></svg>