<?xml version="1.0" encoding="utf-8" ?>
<svg baseProfile="full" height="456px" version="1.1" viewBox="6 28 500 456" width="500px" xmlns="http://www.w3.org/2000/svg" xmlns:ev="http://www.w3.org/2001/xml-events" xmlns:xlink="http://www.w3.org/1999/xlink"><defs /><path d="M256 28 506 307 392 484H120L6 307ZM374 199Q356 180 332.0 170.5Q308 161 283 161Q248 161 218 179Q240 171 264.5 171.0Q289 171 312.0 180.0Q335 189 353 206Q375 226 386.0 251.5Q397 277 397.0 304.5Q397 332 386.0 357.5Q375 383 353 404Q327 429 290.0 436.0Q253 443 218 430Q256 452 299.5 447.0Q343 442 374 411Q396 389 407.0 361.5Q418 334 418 305Q418 275 406.5 247.5Q395 220 374 199ZM267 209Q264 209 262 209L128 221H266Q279 221 291 225L300 250L284 273H252L236 251L240 238L205 233Q186 250 178 274H191Q194 267 199 259H226L243 281L234 310L207 319L185 303Q185 295 187 289H70L173 302V306Q173 335 190 359L203 356L212 331L237 322L263 340V367L241 383Q233 381 225 376L100 374L252 399Q261 401 269 400Q309 400 336.5 371.5Q364 343 364 303Q364 264 335.5 236.5Q307 209 267 209ZM320 327Q307 323 300 321L275 339L276 367L298 383Q320 374 335 355L326 329ZM352 301Q352 291 347.5 278.5Q343 266 337 257L310 258L294 280L304 309L330 317Z"  transform="scale(1, -1) translate(0, -512)" /></svg>