<?xml version="1.0" encoding="utf-8" ?>
<svg baseProfile="full" height="456px" version="1.1" viewBox="6 28 500 456" width="500px" xmlns="http://www.w3.org/2000/svg" xmlns:ev="http://www.w3.org/2001/xml-events" xmlns:xlink="http://www.w3.org/1999/xlink"><defs /><path d="M256 28 506 307 392 484H120L6 307ZM193 226 184 246H312L303 226ZM403 262Q407 257 406.0 251.0Q405 245 400 241Q395 237 389.5 238.0Q384 239 380 243V244Q376 249 377.0 255.0Q378 261 382 265L394 274ZM315 423 329 420Q335 418 338.0 413.0Q341 408 340 402V401Q338 395 333.0 392.0Q328 389 322 391Q316 392 313.0 397.5Q310 403 311 409ZM111 263Q115 258 115.0 252.0Q115 246 111 242Q107 237 101.0 237.0Q95 237 90 242Q86 246 86.0 252.0Q86 258 90 263L101 274ZM311 433Q312 432 312 431Q312 426 307 426L305 427Q291 431 279 427Q263 423 256.0 408.5Q249 394 255 380Q258 374 266 365L273 357Q277 351 279 345Q281 337 279 327Q278 320 272 307Q268 298 266 293Q261 277 261 260H235Q234 278 228 295Q225 304 221 311L212 327Q207 336 203.5 343.5Q200 351 199 361Q197 378 204.0 394.5Q211 411 223.5 423.5Q236 436 252.0 442.0Q268 448 284 445Q297 443 309 435ZM387 323Q400 306 398 284V283Q397 279 394.5 279.0Q392 279 390 281V282Q387 286 383 290Q370 303 354.0 299.0Q338 295 326 278Q320 270 314 260H273Q274 293 290 316Q299 328 311.5 336.0Q324 344 338.0 345.5Q352 347 365.0 341.0Q378 335 387 323ZM158 345Q172 344 184.5 336.0Q197 328 206 316Q222 293 223 260H181Q176 270 170 278Q158 295 142.0 299.0Q126 303 113 290Q109 287 106 282V281Q104 279 101.0 279.0Q98 279 98 282L97 284Q96 306 109 323Q117 335 130.5 341.0Q144 347 158 345Z"  transform="scale(1, -1) translate(0, -512)" /></svg>