<?xml version="1.0" encoding="utf-8" ?>
<svg baseProfile="full" height="456px" version="1.1" viewBox="6 28 500 456" width="500px" xmlns="http://www.w3.org/2000/svg" xmlns:ev="http://www.w3.org/2001/xml-events" xmlns:xlink="http://www.w3.org/1999/xlink"><defs /><path d="M506 307 256 28 6 307 120 484H392ZM122 432V221H146L168 202H191L213 221H299L321 202H344L366 221H390V432ZM371 240H141V413H371ZM361 403H151V250H361V269H352V307H361V346H352V384H361ZM309 317H285Q281 317 281 321V322H244Q242 313 235.5 307.5Q229 302 219.5 302.0Q210 302 203.0 309.5Q196 317 196.0 326.5Q196 336 203.0 343.0Q210 350 219.5 350.0Q229 350 235.5 345.0Q242 340 244 331H258Q256 345 245.5 355.0Q235 365 219.5 365.0Q204 365 193.0 353.5Q182 342 182.0 326.5Q182 311 193.0 299.5Q204 288 220 288Q232 288 241.5 294.5Q251 301 256 312H266Q261 297 248.5 287.5Q236 278 220 278Q200 278 186.0 292.5Q172 307 172.0 326.5Q172 346 186.0 360.0Q200 374 219.5 374.0Q239 374 252.5 361.5Q266 349 268 331H281V332Q281 336 285 336H309Q312 336 312 332V321Q312 317 309 317Z"  transform="scale(1, -1) translate(0, -512)" /></svg>