<?xml version="1.0" encoding="utf-8" ?>
<svg baseProfile="full" height="456px" version="1.1" viewBox="6 28 500 456" width="500px" xmlns="http://www.w3.org/2000/svg" xmlns:ev="http://www.w3.org/2001/xml-events" xmlns:xlink="http://www.w3.org/1999/xlink"><defs /><path d="M506 307 256 28 6 307 120 484H392ZM201 335 136 262V207H155V167L173 274V207H201ZM376 207V262L311 335V207H339V274L358 167V207ZM256 468H255Q233 441 221.5 409.0Q210 377 210 343V225L247 189H251V278H261V189H265L302 225V342Q302 376 290.0 409.0Q278 442 256 468ZM279 385Q271 398 256.0 398.0Q241 398 233 386Q233 401 240.0 411.5Q247 422 256.0 422.0Q265 422 272.0 411.5Q279 401 279 386ZM256 112 290 147Q300 159 302.0 174.5Q304 190 296 203Q294 190 285 180L256 149L228 180Q218 190 216 203Q208 190 210.0 174.5Q212 159 223 147Z"  transform="scale(1, -1) translate(0, -512)" /></svg>