<?xml version="1.0" encoding="utf-8" ?>
<svg baseProfile="full" height="456px" version="1.1" viewBox="6 28 500 456" width="500px" xmlns="http://www.w3.org/2000/svg" xmlns:ev="http://www.w3.org/2001/xml-events" xmlns:xlink="http://www.w3.org/1999/xlink"><defs /><path d="M506 307 256 28 6 307 120 484H392ZM206 276Q206 276 206 276L207 275L213 277L219 281L251 309L277 337L294 365L307 395L312 414L313 429L312 435L310 441L307 447L304 452L300 457L295 461L290 464L284 466L277 467L271 470L265 469L259 468L251 465L238 458L226 449L210 433L191 408L183 393L179 380L177 362L175 349L170 336L161 320V319L207 277ZM103 264 101 261 99 251 98 241 100 231 106 221 113 215 124 211 134 212 150 217 159 223 175 240 188 258V259L143 305H142L131 299L121 291L109 279L101 267ZM421 281 458 310 384 370V335Q340 335 302.0 313.0Q264 291 242.0 253.5Q220 216 220 172Q220 122 248 81Q238 107 238 135Q238 176 258.0 210.5Q278 245 311.5 265.0Q345 285 384 285V251Z"  transform="scale(1, -1) translate(0, -512)" /></svg>