<?xml version="1.0" encoding="utf-8" ?>
<svg baseProfile="full" height="456px" version="1.1" viewBox="6 28 500 456" width="500px" xmlns="http://www.w3.org/2000/svg" xmlns:ev="http://www.w3.org/2001/xml-events" xmlns:xlink="http://www.w3.org/1999/xlink"><defs /><path d="M256 28 506 307 392 484H120L6 307ZM190 335Q187 325 175.0 319.5Q163 314 147 316Q134 317 127.0 328.0Q120 339 123.5 351.0Q127 363 138.5 368.0Q150 373 163 367Q196 354 190 335ZM289 265Q282 255 270 252Q265 250 259 250L251 251Q246 251 242 252L192 265L168 227L177 178L164 172L140 222L171 301Q175 312 185.5 316.5Q196 321 207 317L226 306Q242 297 258 292L266 343Q268 354 277 361L347 422Q349 412 344 404L295 342V282Q294 273 289 265ZM363 169Q354 175 352 186L340 252L280 245Q292 248 299 258Q304 265 305 275L306 284L352 282Q360 282 365.0 276.5Q370 271 370 263L365 168ZM268 173 216 195 195 251 228 242 233 217 272 188ZM217 388Q206 399 206.0 414.5Q206 430 217.0 441.0Q228 452 243.5 452.0Q259 452 270.0 441.0Q281 430 281.0 414.5Q281 399 270 388Q259 377 243.5 377.0Q228 377 217 388ZM220 409Q227 410 230 410L239 401L238 391L228 386Q219 390 215 399ZM273 429Q277 420 276 411V410L267 406L257 411L255 423L263 430ZM239 447Q249 448 258 444L259 434L252 426L240 428L235 438ZM244 401Q250 404 255 406L264 401L266 391Q259 384 250 383L242 390ZM219 413 211 421H212Q213 430 220 437L230 435L235 426L230 415Z"  transform="scale(1, -1) translate(0, -512)" /></svg>