<?xml version="1.0" encoding="utf-8" ?>
<svg baseProfile="full" height="456px" version="1.1" viewBox="6 28 500 456" width="500px" xmlns="http://www.w3.org/2000/svg" xmlns:ev="http://www.w3.org/2001/xml-events" xmlns:xlink="http://www.w3.org/1999/xlink"><defs /><path d="M256 28 506 307 392 484H120L6 307ZM264 108 201 143 186 215 106 288 196 380 210 360 157 288 226 259 269 212 300 261 347 288 308 360 321 383 393 288 327 216 312 143ZM296 302Q297 277 281.5 259.5Q266 242 247 259Q220 282 224 309Q226 322 236.5 329.5Q247 337 260.5 337.0Q274 337 283.5 328.5Q293 320 295 307ZM245 349Q223 355 211.0 375.5Q199 396 205.0 418.5Q211 441 231.5 452.5Q252 464 274.5 458.0Q297 452 308.5 432.0Q320 412 314 389Q308 367 288.0 355.0Q268 343 245 349ZM233 378Q242 385 246 388L264 383L270 368L261 355Q246 354 234 362ZM288 444Q299 436 305 423L296 409L280 408L269 423L273 438ZM230 443Q241 451 255 453L266 440L262 425L244 418L231 427ZM271 386Q276 394 280 401L297 402L307 390Q305 384 301.0 377.5Q297 371 292 367L276 371ZM229 384 213 388Q209 401 212 415L227 421L241 412V394Z"  transform="scale(1, -1) translate(0, -512)" /></svg>