<?xml version="1.0" encoding="utf-8" ?>
<svg baseProfile="full" height="456px" version="1.1" viewBox="6 28 500 456" width="500px" xmlns="http://www.w3.org/2000/svg" xmlns:ev="http://www.w3.org/2001/xml-events" xmlns:xlink="http://www.w3.org/1999/xlink"><defs /><path d="M256 28 506 307 392 484H120L6 307ZM234 300Q202 309 185.5 337.5Q169 366 177.5 397.5Q186 429 214.5 445.5Q243 462 275.0 453.5Q307 445 323.5 416.5Q340 388 332 356H331Q323 324 294.5 308.0Q266 292 234 300ZM217 341Q217 341 217 341L235 355L260 348L269 327L256 308Q236 307 218 318ZM294 433Q311 422 319 403L306 385L284 383L267 403L273 425ZM212 432Q228 444 249 446L263 428L257 406L233 397L214 409ZM270 352Q277 363 284 373L307 374L321 357Q319 349 313.0 339.5Q307 330 300 325L278 331ZM211 349 189 354Q182 373 187 392L208 401L227 388L229 363ZM246 216Q242 201 229.5 190.0Q217 179 200 177Q173 172 150 190L147 192H153Q164 192 174 194Q168 195 162 197Q142 203 129 218Q117 230 113 246L112 250L120 242Q130 235 143 233L134 239Q112 255 104 277Q97 297 102 315L103 318L107 307Q113 292 126 282Q121 289 118 298Q109 323 115 349Q117 362 124 374L125 377L126 374Q127 366 135 352Q145 337 158 323Q170 311 189 299L193 297Q213 284 222 276Q236 262 243.0 247.0Q250 232 246 216ZM312 177Q295 179 282.5 190.0Q270 201 266.0 216.5Q262 232 269.0 247.0Q276 262 290 276Q299 284 319 297L323 299Q342 311 354 323Q367 337 377 352Q385 366 386 374L387 377L388 374Q395 362 397 349Q403 323 394 298Q391 289 386 282Q399 292 405 307L409 318L410 315Q415 297 408 277Q400 255 378 239L369 233Q382 235 392 242L400 250L399 246Q395 230 383 218Q370 203 350 197Q344 195 338 194Q348 192 359 192H365L362 190Q339 172 312 177Z"  transform="scale(1, -1) translate(0, -512)" /></svg>