<?xml version="1.0" encoding="utf-8" ?>
<svg baseProfile="full" height="456px" version="1.1" viewBox="6 28 500 456" width="500px" xmlns="http://www.w3.org/2000/svg" xmlns:ev="http://www.w3.org/2001/xml-events" xmlns:xlink="http://www.w3.org/1999/xlink"><defs /><path d="M112 364Q111 364 109 366L103 370L92 366Q89 356 93 345L104 342L113 350V364ZM115 368Q121 371 128 373L131 385L123 395Q113 394 105 387L106 375ZM133 330Q133 332 131 336L129 342L116 345L107 337L108 325Q117 319 127 319ZM141 355Q141 354 139 352L134 344L138 332L149 329Q157 336 160 346L153 356ZM141 361Q144 361 149 361L153 362L159 372Q155 382 147 389L136 384L133 372ZM392 484H120L6 307L256 28L506 307ZM243 410Q257 415 269.5 409.5Q282 404 288 390L290 386L292 367Q294 347 289 336Q279 312 254 323Q220 339 215 369Q213 383 221.0 394.5Q229 406 243 410ZM87 369Q91 386 106.0 395.0Q121 404 137.0 399.5Q153 395 161.5 379.5Q170 364 166 346Q161 329 146.5 320.0Q132 311 116.0 315.5Q100 320 91.5 335.5Q83 351 87 369ZM321 272 316 200 271 166 227 197 203 261 138 235 102 310 138 301 151 276 231 316 271 283 303 324 455 282 431 258 321 273Z"  transform="scale(1, -1) translate(0, -512)" /></svg>