<?xml version="1.0" encoding="utf-8" ?>
<svg baseProfile="full" height="456px" version="1.1" viewBox="6 24 500 456" width="500px" xmlns="http://www.w3.org/2000/svg" xmlns:ev="http://www.w3.org/2001/xml-events" xmlns:xlink="http://www.w3.org/1999/xlink"><defs /><path d="M285 265V266L275 271L271 274L264 270L256 267Q254 253 260 239L270 237L276 236L288 247ZM315 230Q315 231 313 234L311 238L302 240Q302 240 302 240L293 242L287 236L281 230L283 214Q296 208 310 209L315 219Q315 219 315 219L318 223L315 229ZM326 266Q328 266 334 267L342 268L350 282Q347 288 341.5 293.5Q336 299 331 302L316 295L313 279ZM392 479H120L6 303L256 24L506 303L392 480ZM145 306Q132 319 123.0 330.0Q114 341 114 360Q114 369 116 376L150 411L175 386Q182 379 186 372Q192 362 194 349Q197 331 212 298Q224 273 236 254L241 245Q238 247 234.5 246.5Q231 246 229.5 244.5Q228 243 228 242Q226 238 227.0 234.5Q228 231 232 230L238 226Q238 226 238.0 224.5Q238 223 237 222Q235 219 227.0 220.0Q219 221 216.5 223.0Q214 225 213 229Q213 234 209.0 235.0Q205 236 202 233Q201 232 201 232L200 230Q200 240 186 260Q169 285 146 307ZM336 176H329L327 169H321L319 176H313L312 169H305L304 176H298L296 169H290L288 176H281L280 169H273L272 176H230L229 169H222L221 176H215L214 169H207L206 176Q201 176 200 181H345Q340 175 336 175ZM347 187Q347 187 346 187V186Q345 185 344 185H202Q201 185 199.5 186.0Q198 187 197.5 189.0Q197 191 197 194V200Q197 211 200 222Q202 227 203.5 229.5Q205 232 207.5 231.5Q210 231 210 228Q211 223 214.0 220.5Q217 218 227 216Q234 216 237.5 218.0Q241 220 241.0 223.5Q241 227 239 228L233 231Q230 233 229.5 235.5Q229 238 230.0 240.0Q231 242 234.5 242.5Q238 243 240 242L247 240Q255 217 276 205Q290 197 305.5 197.0Q321 197 335 205Q340 203 343.0 200.5Q346 198 347.0 193.0Q348 188 346 187ZM352 225Q351 224 349 222Q342 213 330.0 207.0Q318 201 304.5 201.5Q291 202 278 209Q259 219 252 238Q243 263 255 286Q261 296 269 303L338 361L273 295L274 280L289 272L306 280L308 292Q308 292 308 292L309 296L304 301Q304 301 304 301L297 308L302 316Q319 317 333.5 309.0Q348 301 356.0 286.0Q364 271 362 254L354 248L351 251Q351 251 351 251L343 260L326 258L325 255Q325 255 325 255L317 241L323 228L324 226L340 223L386 270Z"  transform="scale(1, -1) translate(0, -504)" /></svg>