<?xml version="1.0" encoding="utf-8" ?>
<svg baseProfile="full" height="456px" version="1.1" viewBox="6 28 500 456" width="500px" xmlns="http://www.w3.org/2000/svg" xmlns:ev="http://www.w3.org/2001/xml-events" xmlns:xlink="http://www.w3.org/1999/xlink"><defs /><path d="M256 28 506 307 392 484H120L6 307ZM296 212Q291 202 287 197Q261 161 224 139V235Q224 260 211.0 281.0Q198 302 176 313Q189 332 211 341L238 310L266 341Q280 336 290 325Q312 303 312 273Q312 240 296 212ZM209 135 72 272Q84 293 107 302L135 271L162 302Q176 297 187 286Q209 264 209 234ZM170 370Q170 370 170 370V369Q169 347 157 333L153 328Q145 320 135.0 320.0Q125 320 117 328Q94 350 102 381Q104 393 115.0 399.5Q126 406 139.0 404.5Q152 403 160.5 394.0Q169 385 170 372ZM273 406Q272 381 256 366Q248 358 238.0 357.5Q228 357 220 365Q197 387 205 418Q208 430 218.5 436.5Q229 443 242.5 441.5Q256 440 264.0 431.5Q272 423 273 409ZM324 367Q334 388 356.5 395.5Q379 403 400 392Q422 381 429.5 358.5Q437 336 426.0 315.0Q415 294 392.5 286.5Q370 279 349.0 289.5Q328 300 320.5 322.5Q313 345 324 367ZM330 362Q324 349 325 335L340 327L355 335L357 353L346 364ZM366 292Q351 295 341 305L343 321L358 328L375 320L377 303ZM362 358Q355 366 351 370L353 386Q366 392 381 390L388 376L381 361ZM391 302 385 305 382 321 395 334 411 332 418 317Q416 312 410.5 306.5Q405 301 399 298ZM404 340Q409 339 412 339L424 350Q421 365 411 375L395 372L387 358L396 341ZM407 282Q401 268 391 254Q380 237 364 220L355 212L362 222Q375 245 379 271Q394 273 407 282ZM364 271Q362 263 359 254Q350 226 332 202Q323 190 313 181L304 173Q307 177 311 182L318 191Q333 214 338 243Q342 260 342 280L347 277Q356 273 364 272Z"  transform="scale(1, -1) translate(0, -512)" /></svg>