<?xml version="1.0" encoding="utf-8" ?>
<svg baseProfile="full" height="456px" version="1.1" viewBox="6 24 500 456" width="500px" xmlns="http://www.w3.org/2000/svg" xmlns:ev="http://www.w3.org/2001/xml-events" xmlns:xlink="http://www.w3.org/1999/xlink"><defs /><path d="M268 351Q267 347 264 340L260 334Q264 327 270.5 321.0Q277 315 284 312L300 321L302 339L287 354L268 350ZM333 415Q318 422 301 419L293 402L302 386L324 383L337 397ZM392 479H120L6 303L256 24L506 303L392 480ZM175 183 171 187 136 223 144 230 184 190 176 182ZM230 220Q226 215 220 215Q215 215 210.0 214.0Q205 213 204 211L187 195L147 235L164 251Q165 253 165.5 258.5Q166 264 165.5 267.5Q165 271 166.5 275.0Q168 279 171 282L188 299Q193 304 198 299L224 274L218 268Q215 266 212 266Q208 266 205 268L200 274Q199 275 196.5 275.0Q194 275 193.0 274.0Q192 273 192 271L193 259Q193 249 188 244Q186 242 186.0 239.5Q186 237 189.0 236.5Q192 236 194 238Q202 246 202 260Q209 255 217 258Q221 249 231 248Q231 248 231 248Q233 240 239 236L244 233ZM230 280 218 293 239 314 252 301ZM263 283 233 253 221 265 251 295ZM215 296 203 308 221 326 233 314ZM249 237 236 250 261 274 273 262ZM353 312 298 270 351 322 348 341 330 349 311 338 309 320 322 307 316 297Q297 295 279.5 304.0Q262 313 252.5 330.0Q243 347 244 366L253 372L267 359L286 362L295 382L286 398L269 400L192 325L259 404Q267 414 279 420Q303 433 329.0 425.5Q355 418 368 394Q380 373 375.5 350.0Q371 327 353 312ZM343 391Q342 390 341 389L330 377L334 357L351 349L367 358Q369 374 361 389Z"  transform="scale(1, -1) translate(0, -504)" /></svg>