<?xml version="1.0" encoding="utf-8" ?>
<svg baseProfile="full" height="456px" version="1.1" viewBox="6 24 500 456" width="500px" xmlns="http://www.w3.org/2000/svg" xmlns:ev="http://www.w3.org/2001/xml-events" xmlns:xlink="http://www.w3.org/1999/xlink"><defs /><path d="M392 479H120L6 303L256 24L506 303L392 480ZM355 352Q363 351 367.5 344.5Q372 338 370 330Q364 309 351 311Q345 312 340.0 318.5Q335 325 334.5 333.5Q334 342 340.5 347.0Q347 352 355 352ZM181 164 73 272 164 362 180 346V164ZM169 367 181 379 261 459 278 443 185 351ZM278 436V352L254 340V412ZM278 226 203 162 201 164Q197 167 196.5 172.5Q196 178 200 181L217 202L247 209L194 213L237 224L264 255Q262 251 262 247Q262 235 273 229L278 226Q278 226 278 226ZM353 212Q359 206 358.5 198.5Q358 191 352 187L298 152Q294 156 294.0 161.0Q294 166 297 170L325 202L276 230Q265 236 265 248Q265 253 266 254L267 255Q269 259 271 261L273 263L303 270H197L291 284L304 299L283 315L242 300L236 311L283 336L330 315L344 291L360 302L385 291L422 318L432 309L388 269L350 277L313 247L354 211Z"  transform="scale(1, -1) translate(0, -504)" /></svg>