<?xml version="1.0" encoding="utf-8" ?>
<svg baseProfile="full" height="455px" version="1.1" viewBox="6 26 500 455" width="500px" xmlns="http://www.w3.org/2000/svg" xmlns:ev="http://www.w3.org/2001/xml-events" xmlns:xlink="http://www.w3.org/1999/xlink"><defs /><path d="M392 481H120L6 305L256 26L506 305ZM161 357Q153 365 151 377L156 380L166 375L176 380L178 392L171 400L160 399Q158 395 157 392L121 357L159 406Q161 409 164 412Q176 423 191.5 422.0Q207 421 218.0 409.5Q229 398 228.0 382.0Q227 366 216 355L190 339L212 358Q216 361 218 366L214 376L203 378L193 370L195 359L200 356L191 345Q180 345 171 349L175 353L182 351L190 358L188 369L178 375L168 371L166 360Q168 358 170 356L136 324L162 356ZM242 331Q255 335 266.0 328.0Q277 321 279 308Q281 291 275.5 279.0Q270 267 260 263Q240 256 226 290Q220 304 225.0 316.0Q230 328 242 331ZM331 158 233 212 178 251 164 342 186 337 200 272 233 251 278 246 298 289 287 338 235 380V407L315 348L332 288L359 240L391 217ZM204 383Q205 383 209 382L214 381L222 388Q222 398 215 405L204 404L199 394ZM194 397Q194 397 194 397L200 406L195 416Q186 418 177 414L174 404L182 395Z"  transform="scale(1, -1) translate(0, -507)" /></svg>