<?xml version="1.0" encoding="utf-8" ?>
<svg baseProfile="full" height="456px" version="1.1" viewBox="6 24 500 456" width="500px" xmlns="http://www.w3.org/2000/svg" xmlns:ev="http://www.w3.org/2001/xml-events" xmlns:xlink="http://www.w3.org/1999/xlink"><defs /><path d="M392 479H120L6 303L256 24L506 303L392 480ZM397 339Q397 339 397 339L314 278L269 291ZM288 164Q276 157 255 150H253Q233 157 220 164Q183 184 162 223Q148 248 142 278Q137 303 136.5 330.0Q136 357 138 374L140 386L252 426L254 427L256 426L368 386L370 374Q372 357 372 339L348 330Q348 343 347 355L346 368L257 400H254H252L163 368L161 355Q160 336 161 317Q165 276 179.0 244.5Q193 213 220 194Q234 183 252 177L254 176L257 177Q274 183 289 194Q306 206 318 224L343 217Q322 183 288 164ZM254 196Q253 196 251 196Q221 209 203 236Q189 259 183 289Q178 310 178 337L179 355L253 381Q254 379 254.0 289.0Q254 199 253 196ZM364 201Q364 201 364 201L372 219L269 247V278L383 245L391 262L412 216Z"  transform="scale(1, -1) translate(0, -504)" /></svg>