<?xml version="1.0" encoding="utf-8" ?>
<svg baseProfile="full" height="456px" version="1.1" viewBox="6 28 500 456" width="500px" xmlns="http://www.w3.org/2000/svg" xmlns:ev="http://www.w3.org/2001/xml-events" xmlns:xlink="http://www.w3.org/1999/xlink"><defs /><path d="M256 28 506 307 392 484H120L6 307ZM377 295Q377 295 378 294L408 233L359 185L345 195Q323 213 295.0 221.5Q267 230 238 229L240 230Q251 237 260 247Q264 252 268 257L269 259Q273 266 276 274Q290 272 302.0 279.0Q314 286 319 299H320Q316 291 308.5 287.0Q301 283 292 283Q287 283 281 285Q270 289 264.5 300.5Q259 312 264 323L282 316Q279 335 269.0 350.5Q259 366 242.5 375.5Q226 385 207.0 385.5Q188 386 172.0 377.5Q156 369 146.5 354.0Q137 339 139 321L141 310Q148 286 168.5 271.0Q189 256 214 256Q232 256 248 263L242 256Q230 244 213 237L210 236Q202 234 194 232Q168 228 143.0 238.5Q118 249 101.0 270.5Q84 292 80.5 321.0Q77 350 89 377Q99 402 120.5 420.0Q142 438 169.0 445.5Q196 453 226.0 448.0Q256 443 282 427Q304 412 323 389Q338 370 353 342Q362 327 377 296ZM350 280Q347 274 347.5 267.5Q348 261 352.5 257.0Q357 253 363.5 252.0Q370 251 376 255Z"  transform="scale(1, -1) translate(0, -512)" /></svg>