<?xml version="1.0" encoding="utf-8" ?>
<svg baseProfile="full" height="456px" version="1.1" viewBox="6 28 500 456" width="500px" xmlns="http://www.w3.org/2000/svg" xmlns:ev="http://www.w3.org/2001/xml-events" xmlns:xlink="http://www.w3.org/1999/xlink"><defs /><path d="M506 307 256 28 6 307 120 484H392ZM348 397Q337 428 307.5 446.0Q278 464 242.0 459.0Q206 454 183 428Q151 392 164 344Q168 327 182 309Q191 297 208 280L256 229L319 300Q335 318 343 335Q353 354 352 373Q352 385 348 397ZM255 330Q240 330 229.0 341.0Q218 352 218.0 367.5Q218 383 229.0 394.0Q240 405 255.5 405.0Q271 405 282.0 394.0Q293 383 293.0 367.5Q293 352 282.0 341.0Q271 330 255 330ZM386 213Q391 217 393 220Q399 229 393 238L391 242Q387 246 381 249Q369 257 349 263Q337 266 319 269L309 260Q322 259 336.5 256.0Q351 253 360 249Q364 246 367 243Q372 237 368 231Q366 229 362.0 225.5Q358 222 350 219Q335 212 309 208Q289 205 263.0 204.5Q237 204 209 208Q188 210 172 215Q160 219 152 224Q147 227 144 231Q140 237 145 243Q148 247 151 248Q159 252 165 254Q180 258 203 260L193 269Q172 266 158 261Q140 256 129 248Q123 244 119 239Q113 230 119 220Q122 216 127 212Q138 204 158.5 197.5Q179 191 207 188Q231 185 247 185Q274 185 287 186Q305 187 326.5 191.0Q348 195 365 201Q379 207 386 213Z"  transform="scale(1, -1) translate(0, -512)" /></svg>