<?xml version="1.0" encoding="utf-8" ?>
<svg baseProfile="full" height="456px" version="1.1" viewBox="6 28 500 456" width="500px" xmlns="http://www.w3.org/2000/svg" xmlns:ev="http://www.w3.org/2001/xml-events" xmlns:xlink="http://www.w3.org/1999/xlink"><defs /><path d="M256 28 506 307 392 484H120L6 307ZM234 454Q276 454 312.5 432.0Q349 410 370.0 373.0Q391 336 391 291V268H436L346 175L256 268H301V292Q301 323 286.0 349.5Q271 376 245.0 392.0Q219 408 188.5 408.0Q158 408 132.0 392.0Q106 376 91.0 349.5Q76 323 76 291Q76 336 97.0 373.0Q118 410 154.5 432.0Q191 454 234 454Z"  transform="scale(1, -1) translate(0, -512)" /></svg>