<?xml version="1.0" encoding="utf-8" ?>
<svg baseProfile="full" height="456px" version="1.1" viewBox="6 28 500 456" width="500px" xmlns="http://www.w3.org/2000/svg" xmlns:ev="http://www.w3.org/2001/xml-events" xmlns:xlink="http://www.w3.org/1999/xlink"><defs /><path d="M256 28 506 307 392 484H120L6 307ZM323 174 299 149H235Q199 151 168.5 170.0Q138 189 120.0 220.0Q102 251 102.0 288.0Q102 325 118.5 355.5Q135 386 164.0 405.0Q193 424 228 427V450L289 415L228 379V402Q185 398 155.5 365.5Q126 333 126 288Q126 258 141.0 232.0Q156 206 181.5 190.0Q207 174 237 174ZM462 315 413 265H248Q228 265 212.0 277.5Q196 290 193 310Q186 345 214 367L215 368L214 358Q213 340 225.0 327.5Q237 315 255 315ZM395 247 345 197H234Q203 197 179.0 216.5Q155 236 149 266Q136 322 181 359Q182 361 184 361L183 359Q167 331 176.5 300.0Q186 269 214 255Q230 247 250 247Z"  transform="scale(1, -1) translate(0, -512)" /></svg>