<?xml version="1.0" encoding="utf-8" ?>
<svg baseProfile="full" height="335px" version="1.1" viewBox="135 82 242 335" width="242px" xmlns="http://www.w3.org/2000/svg" xmlns:ev="http://www.w3.org/2001/xml-events" xmlns:xlink="http://www.w3.org/1999/xlink"><defs /><path d="M364 226 325 198 341 192Q333 176 318.0 167.0Q303 158 285 158Q280 158 275 158L271 309H325L341 333H271L270 354Q279 358 284.0 366.0Q289 374 289 384Q289 397 279.5 407.0Q270 417 256 417Q242 417 232.5 407.0Q223 397 223 384Q223 374 228.0 366.0Q233 358 242 354L241 333H171L186 309H241L237 158Q232 158 227 158Q209 158 194.0 167.0Q179 176 171 192L187 198L148 226L135 180L152 186Q155 164 171.5 146.0Q188 128 210 123Q225 120 237.5 109.5Q250 99 256 83V82V83Q262 99 274.0 109.5Q286 120 302 123Q324 128 340.5 146.0Q357 164 360 186L377 180ZM266 373Q262 369 256.0 369.0Q250 369 246.0 373.0Q242 377 242.0 382.5Q242 388 245 393L247 395Q251 398 256.0 398.0Q261 398 265 395L267 393Q270 388 270.0 382.5Q270 377 266 373Z" fill="#6c7795" transform="scale(1, -1) translate(0, -499)" /></svg>