<?xml version="1.0" encoding="utf-8" ?>
<svg baseProfile="full" height="391px" version="1.1" viewBox="135 14 242 391" width="242px" xmlns="http://www.w3.org/2000/svg" xmlns:ev="http://www.w3.org/2001/xml-events" xmlns:xlink="http://www.w3.org/1999/xlink"><defs /><path d="M377 176H347L324 288Q327 298 327 309Q327 330 315.5 347.5Q304 365 285 374Q278 377 271 379L266 380V405H243V380L240 379Q232 377 224 373Q206 364 195.5 347.0Q185 330 185 309Q185 299 188 289L165 176H135L142 156H161L149 98L157 97L152 14H153L174 94Q177 92 180.5 92.0Q184 92 187.0 95.0Q190 98 190 103Q190 109 184 112L199 154Q200 156 202 156H248V142H264V156H310Q312 156 313 153L328 114Q328 112 328 110Q322 107 322.0 102.0Q322 97 325.0 94.0Q328 91 332.0 91.0Q336 91 338 92L359 14H360L355 97L363 98L351 156H370ZM255 351Q271 351 282.5 339.5Q294 328 294.0 312.0Q294 296 282.5 284.5Q271 273 255.0 273.0Q239 273 227.5 284.5Q216 296 216.0 312.0Q216 328 227.5 339.5Q239 351 255 351ZM304 177H264V189H249V177H207L229 239Q230 242 233 242L239 240Q256 235 272 240L280 242Q281 242 281 240Z" fill="#6c7795" transform="scale(1, -1) translate(0, -419)" /></svg>