<?xml version="1.0" encoding="utf-8" ?>
<svg baseProfile="full" height="408px" version="1.1" viewBox="49 34 415 408" width="415px" xmlns="http://www.w3.org/2000/svg" xmlns:ev="http://www.w3.org/2001/xml-events" xmlns:xlink="http://www.w3.org/1999/xlink"><defs /><path d="M267 442Q269 442 274 441L288 440Q389 421 435 332Q464 275 455 212Q446 152 405 107Q362 60 300 46Q246 34 194.5 51.0Q143 68 106.5 108.0Q70 148 59.5 201.5Q49 255 65.5 304.5Q82 354 120.5 389.5Q159 425 212 437Q218 439 233 440L243 442ZM396 242Q396 280 377.5 312.0Q359 344 326.5 363.0Q294 382 256.0 382.0Q218 382 185.5 363.0Q153 344 134.0 312.0Q115 280 115.0 241.5Q115 203 134.0 171.0Q153 139 185.5 120.0Q218 101 256.0 101.0Q294 101 326.0 120.0Q358 139 377.0 171.0Q396 203 396 242ZM367 242Q367 211 352.0 186.0Q337 161 311.5 146.0Q286 131 256.0 131.0Q226 131 200.5 146.0Q175 161 160.0 186.5Q145 212 145.0 242.0Q145 272 160.0 297.5Q175 323 200.5 337.5Q226 352 256.0 352.0Q286 352 311.5 337.0Q337 322 352.0 297.0Q367 272 367 242ZM186 241Q186 213 206.5 192.5Q227 172 256.0 172.0Q285 172 305.0 192.5Q325 213 325.0 241.5Q325 270 305.0 290.5Q285 311 256.0 311.0Q227 311 206.5 290.5Q186 270 186 241ZM214 241Q214 259 226.5 271.5Q239 284 256.0 284.0Q273 284 285.5 271.5Q298 259 298.0 241.5Q298 224 285.5 211.5Q273 199 256.0 199.0Q239 199 226.5 211.5Q214 224 214 241Z" fill="#6c7795" transform="scale(1, -1) translate(0, -476)" /></svg>