<?xml version="1.0" encoding="utf-8" ?>
<svg baseProfile="full" height="387px" version="1.1" viewBox="83 22 346 387" width="346px" xmlns="http://www.w3.org/2000/svg" xmlns:ev="http://www.w3.org/2001/xml-events" xmlns:xlink="http://www.w3.org/1999/xlink"><defs /><path d="M206 276H210H340Q338 312 320.5 343.0Q303 374 274.0 391.5Q245 409 211.0 409.0Q177 409 148.0 391.5Q119 374 101.5 343.0Q84 312 83 276ZM208 197 90 176 96 83 211 22 322 85 330 176ZM336 218 329 161 379 95V127L429 95ZM104 253Q104 247 104 241L153 214L161 218Q169 223 175 228Q183 235 185 242ZM319 253 318 241 269 214 262 218Q253 223 247 228Q239 235 238 242Z" fill="#6c7795" transform="scale(1, -1) translate(0, -431)" /></svg>