<?xml version="1.0" encoding="utf-8" ?>
<svg baseProfile="full" height="247px" version="1.1" viewBox="47 75 418 247" width="418px" xmlns="http://www.w3.org/2000/svg" xmlns:ev="http://www.w3.org/2001/xml-events" xmlns:xlink="http://www.w3.org/1999/xlink"><defs /><path d="M336 277 364 322 281 300 258 310 133 285 114 263 47 236 57 228 56 209 95 184 109 185Q108 178 110 173Q114 164 127 150L125 163Q124 177 125 186L150 188L206 142L189 110L166 113L183 98L176 83L224 75L264 108L305 94L465 224ZM171 242 133 250 195 275 202 270Z" fill="#6c7795" transform="scale(1, -1) translate(0, -397)" /></svg>