<?xml version="1.0" encoding="utf-8" ?>
<svg baseProfile="full" height="274px" version="1.1" viewBox="20 108 472 274" width="472px" xmlns="http://www.w3.org/2000/svg" xmlns:ev="http://www.w3.org/2001/xml-events" xmlns:xlink="http://www.w3.org/1999/xlink"><defs /><path d="M462 300 492 382 294 254 260 170 256 176 252 170 218 254 20 382 50 300 204 238 206 234 62 272 92 220 214 214 216 210 101 203 144 175 221 196 223 193 154 161 204 156 232 177 234 173 215 108 247 141 256 123 265 141 297 108 278 173 280 177 308 156 358 161 289 193 291 196 368 175 411 203 296 210 298 214 420 220 450 272 306 234 308 238ZM255 286Q246 286 239.0 279.0Q232 272 232 262V261L256 204L279 261V262Q279 272 272.0 279.0Q265 286 255 286ZM255 247 247 264 255 259 264 264Z" fill="#6c7795" transform="scale(1, -1) translate(0, -490)" /></svg>