<?xml version="1.0" encoding="utf-8" ?>
<svg baseProfile="full" height="375px" version="1.1" viewBox="137 28 238 375" width="238px" xmlns="http://www.w3.org/2000/svg" xmlns:ev="http://www.w3.org/2001/xml-events" xmlns:xlink="http://www.w3.org/1999/xlink"><defs /><path d="M348 295Q343 322 324.0 342.5Q305 363 277 369L257 340L237 369Q210 363 191.0 343.0Q172 323 167 296L255 327ZM257 403 242 381 257 361 272 381ZM328 225 265 202V28L375 98L362 196L351 280L256 312L161 280L153 213L137 98L250 28V202L184 225L188 262H324Z" fill="#6c7795" transform="scale(1, -1) translate(0, -431)" /></svg>