<?xml version="1.0" encoding="utf-8" ?>
<svg baseProfile="full" height="373px" version="1.1" viewBox="102 52 308 373" width="308px" xmlns="http://www.w3.org/2000/svg" xmlns:ev="http://www.w3.org/2001/xml-events" xmlns:xlink="http://www.w3.org/1999/xlink"><defs /><path d="M409 314 392 286 365 279 292 98 286 94 278 152 269 88 256 81 243 88 234 152 226 94 220 98 147 279 120 286 103 314 102 288 204 68 256 52 308 68 410 288ZM164 281 217 188 208 267 230 260 256 280 282 260 304 267 295 188 348 281 386 293 409 337 401 362 386 351 384 377 377 382 367 339 355 333H338L335 344L359 371L377 408L330 425L307 406L256 396L205 406L182 425L135 408L153 371L177 344L174 333H157L145 340L135 381L128 377L126 351L111 362L103 337L126 293ZM291 297 300 288 291 275 272 290ZM221 297 240 290 221 275 212 288Z" fill="#6c7795" transform="scale(1, -1) translate(0, -477)" /></svg>