<?xml version="1.0" encoding="utf-8" ?>
<svg baseProfile="full" height="238px" version="1.1" viewBox="0 130 512 238" width="512px" xmlns="http://www.w3.org/2000/svg" xmlns:ev="http://www.w3.org/2001/xml-events" xmlns:xlink="http://www.w3.org/1999/xlink"><defs /><path d="M363 181H358L328 176Q286 168 263 166Q224 161 187 161Q163 161 138 163Q69 168 2 190V189Q10 178 18 176Q27 172 28 166L29 159Q29 155 31 154Q38 151 43 151Q45 152 47.5 158.5Q50 165 51.5 166.0Q53 167 61 164L62 163Q70 161 72.5 159.0Q75 157 75 153L76 145Q76 143 77.0 142.0Q78 141 83 140H89Q93 139 94 143L98 153Q99 158 106 157L135 154Q144 153 148 151Q154 148 156 141V139Q157 131 161 131Q168 130 175 130Q177 131 178 133L183 143Q184 147 189 146H209Q213 146 213.5 143.5Q214 141 216 139L218 135Q220 130 225 130H231Q236 130 238 135Q239 138 241 142L244 146Q245 148 246 149Q255 153 266.5 154.0Q278 155 301 156L357 157Q365 156 367.5 155.0Q370 154 372 150L374 141Q376 135 379 134Q392 131 402 134Q405 135 406 138L408 147Q410 154 412.0 156.5Q414 159 421 158H427Q435 158 436.5 151.5Q438 145 439 138Q440 135 447 135Q458 136 466 138Q468 139 470 143L476 160Q477 163 480 164Q492 167 500.5 176.5Q509 186 511 199Q512 204 512 209Q463 197 363 181ZM325 188Q330 188 339 190L414 205Q479 219 510 227L509 237Q504 272 486 314Q483 321 475 328Q471 332 465.5 330.5Q460 329 458 324L457 321Q454 313 452 310Q447 300 443 296Q437 288 430 286Q426 284 417 283H412Q398 280 380 287Q364 293 337 311L331 316Q328 318 329 322Q331 328 331 333Q330 342 328 362Q327 367 325.5 367.5Q324 368 320 366L283 340Q280 337 279 338Q268 340 261 330Q259 326 254 323L224 302Q223 302 221 302Q216 304 213.0 301.5Q210 299 206 294Q200 286 191 285Q188 285 186 283L178 275Q174 272 172 272Q166 273 158 267Q154 264 151.5 264.0Q149 264 145 261L139 258Q119 251 76 243L73 242Q43 237 25.5 230.0Q8 223 1 204L0 202Q62 181 138 175Q192 171 242 176Q273 179 325 188Z" fill="#6c7795" transform="scale(1, -1) translate(0, -498)" /></svg>