<?xml version="1.0" encoding="utf-8" ?>
<svg baseProfile="full" height="296px" version="1.1" viewBox="20 95 472 296" width="472px" xmlns="http://www.w3.org/2000/svg" xmlns:ev="http://www.w3.org/2001/xml-events" xmlns:xlink="http://www.w3.org/1999/xlink"><defs /><path d="M490 246Q432 321 358 361Q313 384 269 388Q222 391 172.5 369.5Q123 348 74 303Q42 274 20 244L22 241Q42 215 69 190Q126 136 184 114Q233 95 281 102Q325 108 369 133Q426 167 477 225L492 244ZM256 130Q225 130 198.5 145.0Q172 160 157.0 186.0Q142 212 142.0 243.5Q142 275 157.0 301.5Q172 328 198.0 343.0Q224 358 255.5 358.0Q287 358 313.5 343.0Q340 328 355.0 301.5Q370 275 370.0 243.5Q370 212 355.0 186.0Q340 160 314.0 145.0Q288 130 256 130ZM175 208Q182 191 199.0 176.5Q216 162 238 157L267 208ZM201 286Q205 277 215 261L220 253L266 332H259Q250 332 246 332Q214 328 192 305Q190 303 191 302ZM246 280H337L336 281Q318 319 277 330Q275 330 274 329ZM292 235Q283 219 265 186L247 156H262Q296 158 321 184Q322 185 321 187ZM230 217Q218 239 194 281L185 296L184 295Q160 260 171 219Q172 217 173 217ZM282 271Q311 221 328 193L329 194Q352 229 341 269Q340 271 338 271ZM271 217Q272 217 273 218L287 243Q287 244 286 245L272 270Q272 271 270 271H242Q241 271 240 270L226 245Q225 244 226 243L240 218Q240 217 242 217Z" fill="#6c7795" transform="scale(1, -1) translate(0, -486)" /></svg>