<?xml version="1.0" encoding="utf-8" ?>
<svg baseProfile="full" height="372px" version="1.1" viewBox="72 64 368 372" width="368px" xmlns="http://www.w3.org/2000/svg" xmlns:ev="http://www.w3.org/2001/xml-events" xmlns:xlink="http://www.w3.org/1999/xlink"><defs /><path d="M256 383Q292 383 322.5 365.5Q353 348 371.0 317.0Q389 286 389.0 250.0Q389 214 371.0 183.5Q353 153 322.5 135.0Q292 117 256.0 117.0Q220 117 189.5 135.0Q159 153 141.0 183.5Q123 214 123.0 250.5Q123 287 141.0 317.5Q159 348 189.5 365.5Q220 383 256 383ZM322 174Q324 174 327 174H341Q343 174 345 175Q358 191 365 211Q366 213 365 215L346 249Q345 250 346 252L365 286Q366 288 365 289Q359 309 345 326Q343 327 341 327H303Q300 327 299 329L280 363Q279 365 277 365Q256 369 235 365Q233 365 232 363L213 329Q212 327 210 327H171Q169 327 167 326Q154 310 147 290Q146 288 147 286L166 252Q167 250 166 249L147 215Q146 213 147 211Q153 192 167 175Q169 174 171 174H209Q212 174 213 172L232 138Q233 136 235 136Q256 132 277 136Q279 136 280 138L299 172Q300 174 303 174ZM256 206Q254 206 250 206H232Q230 206 229 208L206 249Q205 250 206 252L229 293Q230 295 232 295H280Q282 295 283 293L306 252Q307 250 306 249L283 208Q282 206 280 206ZM261 436H248H240V396H269V436ZM261 105H248H240V64H269V105ZM432 267H408H400V238H440V267ZM104 267H80H72V238H112V267Z" fill="#6c7795" transform="scale(1, -1) translate(0, -500)" /></svg>