<?xml version="1.0" encoding="utf-8" ?>
<svg baseProfile="full" height="344px" version="1.1" viewBox="133 21 244 344" width="244px" xmlns="http://www.w3.org/2000/svg" xmlns:ev="http://www.w3.org/2001/xml-events" xmlns:xlink="http://www.w3.org/1999/xlink"><defs /><path d="M377 259Q377 271 376 286Q374 313 369.5 316.5Q365 320 359 320Q349 320 346 310L345 308L344 236H339L336 309L334 342Q333 345 332 347Q327 355 318.5 355.0Q310 355 305 348Q302 346 302 341L300 236H295L290 349Q290 354 287 357Q282 365 272 365Q265 365 260.0 360.5Q255 356 255 349L252 236H247L243 342Q243 347 240 350Q234 358 224 358Q218 358 213.0 354.5Q208 351 206 346Q205 343 205 339V186L151 225L145 221Q140 215 137 208Q133 199 137 188Q142 174 157 158Q177 138 192 126Q202 117 209 113L213 110V75L308 59H214L213 22L347 21V70L344 86L354 115Q365 148 370 165Q376 188 377 254Z" fill="#6c7795" transform="scale(1, -1) translate(0, -386)" /></svg>