<?xml version="1.0" encoding="utf-8" ?>
<svg baseProfile="full" height="347px" version="1.1" viewBox="175 45 162 347" width="162px" xmlns="http://www.w3.org/2000/svg" xmlns:ev="http://www.w3.org/2001/xml-events" xmlns:xlink="http://www.w3.org/1999/xlink"><defs /><path d="M337 181 334 228Q333 256 319.5 280.5Q306 305 283 320L309 392H203L229 320Q206 305 192.5 280.5Q179 256 178 228L175 181L185 161L181 99L221 45L226 176L191 186V218L248 205L240 160L256 146L272 160L264 205L321 218V186L286 176L291 45L331 99L327 161Z" fill="#6c7795" transform="scale(1, -1) translate(0, -437)" /></svg>