<?xml version="1.0" encoding="utf-8" ?>
<svg baseProfile="full" height="368px" version="1.1" viewBox="37 46 438 368" width="438px" xmlns="http://www.w3.org/2000/svg" xmlns:ev="http://www.w3.org/2001/xml-events" xmlns:xlink="http://www.w3.org/1999/xlink"><defs /><path d="M411 328Q404 324 397 321Q380 313 366 308Q346 301 334 301H256H178Q161 301 130 314Q114 321 101 328L37 414L57 273L148 222L192 92L180 85L194 46L256 47L318 46L332 85L320 92L364 222L455 273L475 414ZM211 185 185 198 169 221 228 203ZM327 198 301 185 284 203 343 221Z" fill="#6c7795" transform="scale(1, -1) translate(0, -460)" /></svg>