<?xml version="1.0" encoding="utf-8" ?>
<svg baseProfile="full" height="512px" version="1.1" viewBox="0 0 512 512" width="512px" xmlns="http://www.w3.org/2000/svg" xmlns:ev="http://www.w3.org/2001/xml-events" xmlns:xlink="http://www.w3.org/1999/xlink"><defs /><path d="M256 512 0 256 256 0 512 256ZM355 333Q363 332 367.5 326.0Q372 320 370 311Q364 290 351 292Q345 293 340.0 299.5Q335 306 334.5 315.0Q334 324 340.5 329.0Q347 334 355 333ZM181 146 73 253 164 344 180 327V146ZM169 349 181 360 261 441 278 424 185 332ZM278 417V334L254 321V394ZM278 207 203 144 201 145Q197 148 196.5 153.5Q196 159 200 163L217 183L247 191L194 194L237 205L264 236Q262 233 262 229Q262 216 273 210L278 207Q278 207 278 207ZM353 193Q359 188 358.5 180.5Q358 173 352 169L298 134Q294 137 294.0 142.5Q294 148 297 152L325 183L276 211Q265 217 265 229Q265 234 266 235L267 236Q269 240 271 243L273 245L303 252H197L291 266L304 281L283 297L242 281L236 292L283 318L330 297L344 273L360 284L385 272L422 300L432 291L388 251L350 259L313 228L354 193Z" fill="#6c7795" transform="scale(1, -1) translate(0, -512)" /></svg>