<?xml version="1.0" encoding="utf-8" ?>
<svg baseProfile="full" height="512px" version="1.1" viewBox="0 0 512 512" width="512px" xmlns="http://www.w3.org/2000/svg" xmlns:ev="http://www.w3.org/2001/xml-events" xmlns:xlink="http://www.w3.org/1999/xlink"><defs /><path d="M256 512 512 256 256 0 0 256ZM466 256 390 315 415 255 390 196ZM122 311 46 255 122 200 97 255ZM296 297 322 273 365 254 372 268 330 296 303 337H278L258 311L238 337H213L186 296L144 268L151 254L194 273L220 297L228 277L225 258L161 226L193 142H211L198 210L254 228H258H262L318 210L305 142H323L355 226L291 258L288 277ZM272 351Q283 362 283 379V382Q282 391 276.0 397.0Q270 403 260.5 404.0Q251 405 243.5 400.0Q236 395 234 387Q229 366 245 351Q251 345 258.0 345.0Q265 345 272 351Z" fill="#6c7795" transform="scale(1, -1) translate(0, -512)" /></svg>