<?xml version="1.0" encoding="utf-8" ?>
<svg baseProfile="full" height="512px" version="1.1" viewBox="0 0 512 512" width="512px" xmlns="http://www.w3.org/2000/svg" xmlns:ev="http://www.w3.org/2001/xml-events" xmlns:xlink="http://www.w3.org/1999/xlink"><defs /><path d="M256 512 512 256 256 0 0 256ZM236 235Q238 241 233.0 244.5Q228 248 223.5 246.5Q219 245 217 240L206 209Q205 207 204.0 206.5Q203 206 200 206H195Q184 214 180 227L167 279Q166 283 162.0 284.5Q158 286 154.5 283.5Q151 281 152 276L164 227L160 226L136 288Q134 293 130.0 293.5Q126 294 123.5 291.0Q121 288 123 283L140 236L144 221L138 218L111 263Q109 266 106.5 266.5Q104 267 101 265Q95 262 98 255L101 251Q115 229 125 210L118 206L97 233Q92 239 86.5 234.5Q81 230 85 223L130 157Q143 138 167 138Q182 137 194.0 145.5Q206 154 211 168ZM313 158Q350 148 383.5 167.5Q417 187 427 224Q437 262 417.5 295.5Q398 329 361.0 339.0Q324 349 290.5 329.5Q257 310 247.0 273.0Q237 236 256.5 202.0Q276 168 313 158ZM293 206Q303 214 314 223L344 215L354 190L339 167Q315 167 295 179ZM383 316Q403 302 412 280L397 258L371 257L352 280L359 306ZM288 314Q307 328 330 330L347 309L340 283L312 273L289 287ZM363 232Q368 240 371 245V244L398 246L415 225Q412 216 405.0 205.0Q398 194 390 188L365 194L355 219ZM286 216 260 223Q253 245 258 267L283 277L305 262L307 232ZM245 370Q211 381 175.0 373.0Q139 365 107 342Q170 372 229 353Q250 347 270 335Q280 343 291 347Q269 363 245 370ZM243 298Q247 308 253 317Q235 328 216 334Q182 345 146.0 337.0Q110 329 78 306Q141 336 201 317Q222 310 243 298Z" fill="#6c7795" transform="scale(1, -1) translate(0, -512)" /></svg>