<?xml version="1.0" encoding="utf-8" ?>
<svg baseProfile="full" height="512px" version="1.1" viewBox="0 0 512 512" width="512px" xmlns="http://www.w3.org/2000/svg" xmlns:ev="http://www.w3.org/2001/xml-events" xmlns:xlink="http://www.w3.org/1999/xlink"><defs /><path d="M512 256 256 512 0 256 256 0ZM234 264Q202 273 185.5 301.5Q169 330 177.5 361.5Q186 393 214.5 409.5Q243 426 275.0 417.5Q307 409 323.5 380.5Q340 352 332 320H331Q323 288 294.5 272.0Q266 256 234 264ZM217 305Q217 305 217 305L235 319L260 312L269 291L256 272Q236 271 218 282ZM294 397Q311 386 319 367L306 349L284 347L267 367L273 389ZM212 396Q228 408 249 410L263 392L257 370L233 361L214 373ZM270 316Q277 327 284 337L307 338L321 321Q319 313 313.0 303.5Q307 294 300 289L278 295ZM211 313 189 318Q182 337 187 356L208 365L227 352L229 327ZM246 180Q242 165 229.5 154.0Q217 143 200 141Q173 136 150 154L147 156H153Q164 156 174 158Q168 159 162 161Q142 167 129 182Q117 194 113 210L112 214L120 206Q130 199 143 197L134 203Q112 219 104 241Q97 261 102 279L103 282L107 271Q113 256 126 246Q121 253 118 262Q109 287 115 313Q117 326 124 338L125 341L126 338Q127 330 135 316Q145 301 158 287Q170 275 189 263L193 261Q213 248 222 240Q236 226 243.0 211.0Q250 196 246 180ZM312 141Q295 143 282.5 154.0Q270 165 266.0 180.5Q262 196 269.0 211.0Q276 226 290 240Q299 248 319 261L323 263Q342 275 354 287Q367 301 377 316Q385 330 386 338L387 341L388 338Q395 326 397 313Q403 287 394 262Q391 253 386 246Q399 256 405 271L409 282L410 279Q415 261 408 241Q400 219 378 203L369 197Q382 199 392 206L400 214L399 210Q395 194 383 182Q370 167 350 161Q344 159 338 158Q348 156 359 156H365L362 154Q339 136 312 141Z" fill="#6c7795" transform="scale(1, -1) translate(0, -512)" /></svg>