<?xml version="1.0" encoding="utf-8" ?>
<svg baseProfile="full" height="512px" version="1.1" viewBox="0 0 512 512" width="512px" xmlns="http://www.w3.org/2000/svg" xmlns:ev="http://www.w3.org/2001/xml-events" xmlns:xlink="http://www.w3.org/1999/xlink"><defs /><path d="M256 512 512 256 256 0 0 256ZM193 304Q192 303 191 302L178 291L153 267Q143 256 134 248L133 246Q128 242 119 235L116 233L137 242L159 253Q179 265 198 282L202 285Q210 293 220 304L232 320L225 318Q216 316 207 312ZM334 224Q334 228 334 232L332 248Q330 255 328 261Q320 237 306 216L317 200Q309 178 292 164L270 172Q257 159 242 149L241 148Q233 143 225 139Q236 136 248 136L263 138L276 142L287 147Q292 150 296 153L306 162Q312 167 315 172L322 182L328 195L332 210ZM315 285Q312 289 307.5 293.5Q303 298 297 303Q276 319 249 321L242 309L257 287L249 262L222 253L204 267L195 259L215 244L214 214L193 199L169 207Q165 224 168 241Q162 238 155 235Q153 202 172 175Q179 164 189 156Q193 153 198 150L199 149L196 147Q178 134 160 125L180 131L198 138L223 151Q240 162 255 174L264 183Q283 200 297 221Q304 232 310 243L317 258Q320 266 323 273Q320 278 317 282ZM209 157Q232 175 248 194V195L221 204L200 189V163L201 162Q206 159 209 157ZM279 234Q279 234 280 234H281Q296 256 304 280Q299 286 293 292L268 284L260 258L277 234ZM362 362 338 386H159L127 353H353ZM396 173V326L372 351L364 341V139Z" fill="#6c7795" transform="scale(1, -1) translate(0, -512)" /></svg>