<?xml version="1.0" encoding="utf-8" ?>
<svg baseProfile="full" height="512px" version="1.1" viewBox="0 0 512 512" width="512px" xmlns="http://www.w3.org/2000/svg" xmlns:ev="http://www.w3.org/2001/xml-events" xmlns:xlink="http://www.w3.org/1999/xlink"><defs /><path d="M512 256 256 512 0 256 256 0ZM409 240Q412 230 415 222Q417 217 414.0 212.5Q411 208 405 206Q353 188 326 181Q301 174 279 171Q251 167 223 168H219L190 126L96 220Q108 243 137 254Q143 256 149 257Q168 261 185.0 253.5Q202 246 213 230L222 218L217 232Q215 237 212 242Q226 269 257 274Q276 277 293 267Q299 264 306 257L307 255L304 263Q299 275 294 294L284 333Q282 342 278 352L277 353Q274 356 268 363L264 368Q254 362 247.0 360.0Q240 358 229 358Q227 358 224 357L208 350Q203 348 199.0 351.5Q195 355 198 361L200 365L197 366Q192 368 191.0 370.0Q190 372 191 378L198 398Q201 406 209 406L266 404Q273 404 279 399L302 384L314 374Q335 359 353 340Q374 319 392 294Q400 283 403 268ZM249 197Q255 194 262 194Q279 191 293.0 199.0Q307 207 310 221Q304 212 294.0 205.5Q284 199 270 197Q259 195 249 197Z" fill="#6c7795" transform="scale(1, -1) translate(0, -512)" /></svg>