<?xml version="1.0" encoding="utf-8" ?>
<svg baseProfile="full" height="512px" version="1.1" viewBox="0 0 512 512" width="512px" xmlns="http://www.w3.org/2000/svg" xmlns:ev="http://www.w3.org/2001/xml-events" xmlns:xlink="http://www.w3.org/1999/xlink"><defs /><path d="M256 512 0 256 256 0 512 256ZM397 304 314 243 269 256ZM288 129Q276 122 255 115H253Q233 122 220 129Q183 149 162 188Q148 212 142 242Q137 268 136.5 294.5Q136 321 138 338L140 351L252 391H254H256L368 351L370 338Q372 321 372 304L348 295Q348 307 347 319L346 332L257 364L254 365L252 364L163 332L161 319Q160 301 161 281Q165 240 179.0 208.5Q193 177 220 158Q234 148 252 141H254H257Q274 148 289 158Q306 170 318 188L343 182Q322 147 288 129ZM254 160Q253 160 251 161Q221 174 203 201Q189 224 183 254Q178 275 178 301L179 319L253 346Q254 344 254.0 253.5Q254 163 253 160ZM364 165Q364 165 364 165L372 183L269 211V242L383 209L391 227L412 180Z" fill="#6c7795" transform="scale(1, -1) translate(0, -512)" /></svg>