<?xml version="1.0" encoding="utf-8" ?>
<svg baseProfile="full" height="512px" version="1.1" viewBox="0 0 512 512" width="512px" xmlns="http://www.w3.org/2000/svg" xmlns:ev="http://www.w3.org/2001/xml-events" xmlns:xlink="http://www.w3.org/1999/xlink"><defs /><path d="M512 256 256 512 0 256 256 0ZM296 152Q291 142 287 137Q261 101 224 79V175Q224 200 211.0 221.0Q198 242 176 253Q189 272 211 281L238 250L266 281Q280 276 290 265Q312 243 312 213Q312 180 296 152ZM209 75 72 212Q84 233 107 242L135 211L162 242Q176 237 187 226Q209 204 209 174ZM170 310Q170 310 170 310V309Q169 287 157 273L153 268Q145 260 135.0 260.0Q125 260 117 268Q94 290 102 321Q104 333 115.0 339.5Q126 346 139.0 344.5Q152 343 160.5 334.0Q169 325 170 312ZM273 346Q272 321 256 306Q248 298 238.0 297.5Q228 297 220 305Q197 327 205 358Q208 370 218.5 376.5Q229 383 242.5 381.5Q256 380 264.0 371.5Q272 363 273 349ZM324 307Q334 328 356.5 335.5Q379 343 400 332Q422 321 429.5 298.5Q437 276 426.0 255.0Q415 234 392.5 226.5Q370 219 349.0 229.5Q328 240 320.5 262.5Q313 285 324 307ZM330 302Q324 289 325 275L340 267L355 275L357 293L346 304ZM366 232Q351 235 341 245L343 261L358 268L375 260L377 243ZM362 298Q355 306 351 310L353 326Q366 332 381 330L388 316L381 301ZM391 242 385 245 382 261 395 274 411 272 418 257Q416 252 410.5 246.5Q405 241 399 238ZM404 280Q409 279 412 279L424 290Q421 305 411 315L395 312L387 298L396 281ZM407 222Q401 208 391 194Q380 177 364 160L355 152L362 162Q375 185 379 211Q394 213 407 222ZM364 211Q362 203 359 194Q350 166 332 142Q323 130 313 121L304 113Q307 117 311 122L318 131Q333 154 338 183Q342 200 342 220L347 217Q356 213 364 212Z" fill="#6c7795" transform="scale(1, -1) translate(0, -512)" /></svg>