<?xml version="1.0" encoding="utf-8" ?>
<svg baseProfile="full" height="512px" version="1.1" viewBox="0 0 512 512" width="512px" xmlns="http://www.w3.org/2000/svg" xmlns:ev="http://www.w3.org/2001/xml-events" xmlns:xlink="http://www.w3.org/1999/xlink"><defs /><path d="M512 256 256 512 0 256 256 0ZM323 138 299 113H235Q199 115 168.5 134.0Q138 153 120.0 184.0Q102 215 102.0 252.0Q102 289 118.5 319.5Q135 350 164.0 369.0Q193 388 228 391V414L289 379L228 343V366Q185 362 155.5 329.5Q126 297 126 252Q126 222 141.0 196.0Q156 170 181.5 154.0Q207 138 237 138ZM462 279 413 229H248Q228 229 212.0 241.5Q196 254 193 274Q186 309 214 331L215 332L214 322Q213 304 225.0 291.5Q237 279 255 279ZM395 211 345 161H234Q203 161 179.0 180.5Q155 200 149 230Q136 286 181 323Q182 325 184 325L183 323Q167 295 176.5 264.0Q186 233 214 219Q230 211 250 211Z" fill="#6c7795" transform="scale(1, -1) translate(0, -512)" /></svg>