<?xml version="1.0" encoding="utf-8" ?>
<svg baseProfile="full" height="512px" version="1.1" viewBox="0 0 512 512" width="512px" xmlns="http://www.w3.org/2000/svg" xmlns:ev="http://www.w3.org/2001/xml-events" xmlns:xlink="http://www.w3.org/1999/xlink"><defs /><path d="M512 256 256 512 0 256 256 0ZM398 220Q404 220 411 221L416 234L408 246L392 247L383 236L385 229L367 227Q357 236 353 249H360Q362 245 364 241L378 240L387 251L383 266L370 272L358 264Q358 261 358 257L297 259L351 264V266Q352 280 361 292L368 291L372 278L385 273L399 281V295L388 304Q384 303 380 301L315 302L395 312Q400 313 404 312Q424 311 438.0 296.0Q452 281 450.5 260.5Q449 240 434.0 226.5Q419 213 398 214L326 223ZM405 288V281L418 271L431 275L436 288Q429 298 418 303L406 295ZM413 250Q414 250 414 249L421 238L435 237Q443 247 444 259L433 268L419 265ZM362 147Q356 144 349 144Q337 144 329 152L273 201L204 217L142 155L60 229Q66 236 76 236Q82 236 88 233L136 203L206 310L111 305L108 323L254 350L284 312L243 256L302 228L362 147ZM307 340Q300 333 292.0 332.5Q284 332 277 339Q259 357 263 382Q264 392 272.5 398.0Q281 404 291.5 403.5Q302 403 309.5 396.5Q317 390 318 379V375Q319 354 307 340Z" fill="#6c7795" transform="scale(1, -1) translate(0, -512)" /></svg>