<?xml version="1.0" encoding="utf-8" ?>
<svg baseProfile="full" height="512px" version="1.1" viewBox="0 0 512 512" width="512px" xmlns="http://www.w3.org/2000/svg" xmlns:ev="http://www.w3.org/2001/xml-events" xmlns:xlink="http://www.w3.org/1999/xlink"><defs /><path d="M512 256 256 512 0 256 256 0ZM193 186 184 206H312L303 186ZM403 222Q407 217 406.0 211.0Q405 205 400 201Q395 197 389.5 198.0Q384 199 380 203V204Q376 209 377.0 215.0Q378 221 382 225L394 234ZM315 383 329 380Q335 378 338.0 373.0Q341 368 340 362V361Q338 355 333.0 352.0Q328 349 322 351Q316 352 313.0 357.5Q310 363 311 369ZM111 223Q115 218 115.0 212.0Q115 206 111 202Q107 197 101.0 197.0Q95 197 90 202Q86 206 86.0 212.0Q86 218 90 223L101 234ZM311 393Q312 392 312 391Q312 386 307 386L305 387Q291 391 279 387Q263 383 256.0 368.5Q249 354 255 340Q258 334 266 325L273 317Q277 311 279 305Q281 297 279 287Q278 280 272 267Q268 258 266 253Q261 237 261 220H235Q234 238 228 255Q225 264 221 271L212 287Q207 296 203.5 303.5Q200 311 199 321Q197 338 204.0 354.5Q211 371 223.5 383.5Q236 396 252.0 402.0Q268 408 284 405Q297 403 309 395ZM387 283Q400 266 398 244V243Q397 239 394.5 239.0Q392 239 390 241V242Q387 246 383 250Q370 263 354.0 259.0Q338 255 326 238Q320 230 314 220H273Q274 253 290 276Q299 288 311.5 296.0Q324 304 338.0 305.5Q352 307 365.0 301.0Q378 295 387 283ZM158 305Q172 304 184.5 296.0Q197 288 206 276Q222 253 223 220H181Q176 230 170 238Q158 255 142.0 259.0Q126 263 113 250Q109 247 106 242V241Q104 239 101.0 239.0Q98 239 98 242L97 244Q96 266 109 283Q117 295 130.5 301.0Q144 307 158 305Z" fill="#6c7795" transform="scale(1, -1) translate(0, -512)" /></svg>