<?xml version="1.0" encoding="utf-8" ?>
<svg baseProfile="full" height="512px" version="1.1" viewBox="0 0 512 512" width="512px" xmlns="http://www.w3.org/2000/svg" xmlns:ev="http://www.w3.org/2001/xml-events" xmlns:xlink="http://www.w3.org/1999/xlink"><defs /><path d="M256 512 512 256 256 0 0 256ZM126 368V163H149L171 145H193L214 163H298L319 145H341L363 163H386V368ZM367 182H145V349H367ZM358 340H154V191H358V210H349V247H358V284H349V321H358ZM307 256Q311 256 311 260V271Q311 275 307 275H284Q280 275 280 271V270H267Q266 288 252.5 300.0Q239 312 220.5 312.0Q202 312 188.5 298.5Q175 285 175.0 265.5Q175 246 188.5 232.5Q202 219 221 219Q237 219 249.0 228.0Q261 237 266 252H256Q252 241 242.5 234.5Q233 228 221 228Q206 228 195.0 239.0Q184 250 184.0 265.5Q184 281 195.0 292.0Q206 303 220.5 303.0Q235 303 245.5 293.5Q256 284 258 270H244Q242 278 236.0 283.5Q230 289 221.0 289.0Q212 289 205.0 282.0Q198 275 198.0 265.5Q198 256 205.0 249.0Q212 242 221.0 242.0Q230 242 236.0 247.5Q242 253 244 261H280V260Q280 256 284 256Z" fill="#6c7795" transform="scale(1, -1) translate(0, -512)" /></svg>