<?xml version="1.0" encoding="utf-8" ?>
<svg baseProfile="full" height="512px" version="1.1" viewBox="0 0 512 512" width="512px" xmlns="http://www.w3.org/2000/svg" xmlns:ev="http://www.w3.org/2001/xml-events" xmlns:xlink="http://www.w3.org/1999/xlink"><defs /><path d="M512 256 256 512 0 256 256 0ZM268 68 201 105 186 180 102 256 196 352 210 331 155 256 227 226 272 177 305 228 354 257 314 331 327 356 402 256 333 181 317 105ZM300 271Q302 245 285.5 226.5Q269 208 249 226Q221 250 226 278Q228 291 238.5 299.5Q249 308 263.5 307.5Q278 307 288.0 298.5Q298 290 300 276ZM247 320Q224 326 211.5 347.5Q199 369 205.5 392.5Q212 416 233.0 428.0Q254 440 278.0 434.0Q302 428 314.0 406.5Q326 385 320 362Q313 338 292.0 326.0Q271 314 247 320ZM235 350Q235 350 235 350L248 361L267 356L273 340L264 326Q249 325 236 333ZM292 419Q304 411 310 397L301 383L284 382L272 397L276 413ZM232 418Q243 427 258 428L269 415L265 399L247 392L233 401ZM274 359Q279 367 284 374L301 375L312 362Q310 356 305.5 349.0Q301 342 296 339L280 343ZM230 356 214 361Q210 374 213 389L228 395L243 386L244 367Z" fill="#6c7795" transform="scale(1, -1) translate(0, -512)" /></svg>