<?xml version="1.0" encoding="utf-8" ?>
<svg baseProfile="full" height="512px" version="1.1" viewBox="0 0 512 512" width="512px" xmlns="http://www.w3.org/2000/svg" xmlns:ev="http://www.w3.org/2001/xml-events" xmlns:xlink="http://www.w3.org/1999/xlink"><defs /><path d="M287 224V225L277 231Q277 231 277 231L273 233L258 226Q256 212 262 198L272 196L278 195L290 207ZM317 189Q317 191 315 194L313 198L304 200Q304 200 304 200L295 201L289 196L283 190L285 174Q298 167 312 169L317 178L320 183L317 189ZM328 225Q330 225 336 226L344 227L352 241Q349 247 343.5 253.0Q338 259 333 262L318 255L315 238ZM256 512 0 256 256 0 512 256ZM147 266Q134 278 125.0 289.5Q116 301 116 320Q116 329 118 336L152 370L177 346Q184 339 188 331Q194 321 196 308Q199 291 214 258Q226 233 238 213L243 205Q240 206 236.5 205.5Q233 205 231.5 203.5Q230 202 230 202V201Q228 198 229.0 194.5Q230 191 234 189L240 186Q240 186 240.0 184.5Q240 183 239 181Q237 179 229.0 180.0Q221 181 218.5 183.0Q216 185 215 188Q215 193 211.0 194.5Q207 196 204 193Q203 192 203 192L202 190Q202 199 188 220Q171 245 148 267ZM338 135H331L329 129H323L321 135H315L314 129H307L306 135H300L298 129H292L290 135H283L282 129H275L274 135H232L231 129H224L223 135H217L216 129H209L208 135Q203 136 202 141H347Q342 135 338 135ZM349 146Q349 146 348 146Q347 145 346 145H204Q203 145 201.5 146.0Q200 147 199.5 149.0Q199 151 199 154V160Q199 171 202 181Q204 187 205.5 189.5Q207 192 209.5 191.5Q212 191 212 187Q213 183 216.0 180.0Q219 177 229 176Q236 175 239.5 177.5Q243 180 243.0 183.5Q243 187 241 188L235 191Q232 192 231.5 194.5Q231 197 232.0 199.5Q233 202 236.5 202.5Q240 203 242 202L249 199Q257 176 278 165Q292 157 307.5 157.0Q323 157 337 165Q342 162 345.0 159.5Q348 157 349.0 152.5Q350 148 348 146ZM351 182Q344 172 332.0 166.5Q320 161 306.5 161.0Q293 161 280 168Q261 179 254 198Q245 223 257 246Q263 256 271 263L340 321L275 255L276 240L291 232L308 240L310 252Q310 252 310 252L311 256L306 260Q306 260 306 260L299 268L304 276Q321 277 335.5 269.0Q350 261 358.0 245.5Q366 230 364 213L356 208L353 211Q353 211 353 211L345 220L336 218L328 217L319 201L325 187L326 186L342 183L388 229Z" fill="#6c7795" transform="scale(1, -1) translate(0, -512)" /></svg>