<?xml version="1.0" encoding="utf-8" ?>
<svg baseProfile="full" height="512px" version="1.1" viewBox="0 0 512 512" width="512px" xmlns="http://www.w3.org/2000/svg" xmlns:ev="http://www.w3.org/2001/xml-events" xmlns:xlink="http://www.w3.org/1999/xlink"><defs /><path d="M256 512 512 256 256 0 0 256ZM206 238Q206 238 206 238L207 237L213 239L219 243L251 271L277 299L294 327L307 357L312 376L313 391L312 397L310 403L307 409L304 414L300 419L295 423L290 426L284 428L277 429L271 432L265 431L259 430L251 427L238 420L226 411L210 395L191 370L183 355L179 342L177 324L175 311L170 298L161 282V281L207 239ZM103 226 101 223 99 213 98 203 100 193 106 183 113 177 124 173 134 174 150 179 159 185 175 202 188 220V221L143 267H142L131 261L121 253L109 241L101 229ZM421 243 458 272 384 332V297Q340 297 302.0 275.0Q264 253 242.0 215.5Q220 178 220 134Q220 84 248 43Q238 69 238 97Q238 138 258.0 172.5Q278 207 311.5 227.0Q345 247 384 247V213Z" fill="#6c7795" transform="scale(1, -1) translate(0, -512)" /></svg>