<?xml version="1.0" encoding="utf-8" ?>
<svg baseProfile="full" height="512px" version="1.1" viewBox="0 0 512 512" width="512px" xmlns="http://www.w3.org/2000/svg" xmlns:ev="http://www.w3.org/2001/xml-events" xmlns:xlink="http://www.w3.org/1999/xlink"><defs /><path d="M256 512 512 256 256 0 0 256ZM192 150H155V131H192ZM164 259V150H183V174L241 191L208 201L183 193V216L331 173V150H350V259H331V245L254 223L286 213L331 226V193L183 236V259ZM322 150V131H359V150ZM157 268H197L240 343H200ZM256 268 298 343H258L215 268ZM274 268H315L357 343H317ZM139 268 182 343H116V268ZM396 343H373L330 268H396ZM174 352Q179 352 183.5 356.0Q188 360 188.0 366.0Q188 372 183.5 376.0Q179 380 173.5 380.0Q168 380 164.0 376.0Q160 372 160.0 366.0Q160 360 164.0 356.0Q168 352 174 352ZM354 366Q354 372 350.0 376.0Q346 380 340.5 380.0Q335 380 330.5 376.0Q326 372 326.0 366.0Q326 360 330.5 356.0Q335 352 340.5 352.0Q346 352 350.0 356.0Q354 360 354 366Z" fill="#6c7795" transform="scale(1, -1) translate(0, -512)" /></svg>