<?xml version="1.0" encoding="utf-8" ?>
<svg baseProfile="full" height="512px" version="1.1" viewBox="0 0 512 512" width="512px" xmlns="http://www.w3.org/2000/svg" xmlns:ev="http://www.w3.org/2001/xml-events" xmlns:xlink="http://www.w3.org/1999/xlink"><defs /><path d="M156 309Q153 309 148 309H145L138 298L142 287L152 284Q160 290 163 300ZM110 327Q111 326 112 325L119 321L131 325L134 336L127 345Q117 344 109 338ZM141 318Q143 316 144 314H156L162 324Q158 333 150 339L139 335L136 324ZM117 303Q117 307 117 309V316L107 322L97 318Q95 308 98 299L109 296ZM135 282Q136 283 136 284L137 285L133 296L121 299L112 292V280Q121 275 131 275ZM256 512 0 256 256 0 512 256ZM243 359Q256 363 268.0 358.0Q280 353 286 341L288 337Q297 313 287.0 290.5Q277 268 253 279Q220 293 216 321Q214 334 221.5 344.5Q229 355 243 360ZM92 321Q96 337 110.5 345.5Q125 354 140.5 349.5Q156 345 164.0 330.5Q172 316 168 300Q164 284 150.0 275.5Q136 267 120.0 271.5Q104 276 96.0 290.5Q88 305 92 321ZM318 232 314 165 270 133 227 162 204 221 141 197 107 267 141 258 154 235 231 272 270 241 300 280 447 240 424 218Z" fill="#6c7795" transform="scale(1, -1) translate(0, -512)" /></svg>