<?xml version="1.0" encoding="utf-8" ?>
<svg baseProfile="full" height="512px" version="1.1" viewBox="0 0 512 512" width="512px" xmlns="http://www.w3.org/2000/svg" xmlns:ev="http://www.w3.org/2001/xml-events" xmlns:xlink="http://www.w3.org/1999/xlink"><defs /><path d="M256 512 512 256 256 0 0 256ZM354 368Q343 402 311.0 421.0Q279 440 241.0 435.0Q203 430 178 402Q143 363 157 311Q162 294 177 274Q186 261 204 243L256 189L324 264Q341 284 349 302Q360 323 359 342Q359 356 354 368ZM255 297Q239 297 227.0 308.5Q215 320 215.0 337.0Q215 354 227.0 365.5Q239 377 255.5 377.0Q272 377 284.0 365.0Q296 353 295.5 337.0Q295 321 283.5 309.0Q272 297 255 297ZM396 172Q400 175 403 179Q409 189 403 199L400 202Q396 206 390 210Q377 219 356 224Q342 228 324 231L312 222Q327 221 342.5 217.5Q358 214 367 210Q372 207 375 204Q380 198 376 191Q374 188 371 185Q365 181 357 178Q340 171 313 167Q291 163 263.5 162.5Q236 162 206 166Q184 168 166 174Q153 178 144 183Q139 186 136 191Q131 198 137 204Q141 208 144 209Q152 213 159 215Q175 220 199 222L188 232Q166 228 151 223Q132 217 120 209Q113 205 109 199Q103 189 109 179Q112 175 118 170Q130 162 151.5 155.0Q173 148 203 144Q229 141 247 142Q275 142 289 142Q308 144 331.5 148.0Q355 152 373 159Q388 165 396 172Z" fill="#6c7795" transform="scale(1, -1) translate(0, -512)" /></svg>