<?xml version="1.0" encoding="utf-8" ?>
<svg baseProfile="full" height="512px" version="1.1" viewBox="0 0 512 512" width="512px" xmlns="http://www.w3.org/2000/svg" xmlns:ev="http://www.w3.org/2001/xml-events" xmlns:xlink="http://www.w3.org/1999/xlink"><defs /><path d="M512 256 256 512 0 256 256 0ZM389 243Q389 243 390 242L420 181L371 133L357 143Q335 161 307.0 169.5Q279 178 250 177L252 178Q263 185 272 195Q276 200 280 205L281 207Q285 214 288 222Q302 220 314.0 227.0Q326 234 331 247H332Q328 239 320.5 235.0Q313 231 304 231Q299 231 293 233Q282 237 276.5 248.5Q271 260 276 271L294 264Q291 283 281.0 298.5Q271 314 254.5 323.5Q238 333 219.0 333.5Q200 334 184.0 325.5Q168 317 158.5 302.0Q149 287 151 269L153 258Q160 234 180.5 219.0Q201 204 226 204Q244 204 260 211L254 204Q242 192 225 185L222 184Q214 182 206 180Q180 176 155.0 186.5Q130 197 113.0 218.5Q96 240 92.5 269.0Q89 298 101 325Q111 350 132.5 368.0Q154 386 181.0 393.5Q208 401 238.0 396.0Q268 391 294 375Q316 360 335 337Q350 318 365 290Q374 275 389 244ZM362 228Q359 222 359.5 215.5Q360 209 364.5 205.0Q369 201 375.5 200.0Q382 199 388 203Z" fill="#6c7795" transform="scale(1, -1) translate(0, -512)" /></svg>