<?xml version="1.0" encoding="utf-8" ?>
<svg baseProfile="full" height="512px" version="1.1" viewBox="0 0 512 512" width="512px" xmlns="http://www.w3.org/2000/svg" xmlns:ev="http://www.w3.org/2001/xml-events" xmlns:xlink="http://www.w3.org/1999/xlink"><defs /><path d="M256 512 512 256 256 0 0 256ZM294 266 348 307 344 328 290 294 230 308 241 266ZM306 167Q315 172 320.0 180.0Q325 188 325 198V203Q323 216 313.0 224.5Q303 233 290 233L238 231L218 309L190 325Q184 328 176.0 328.0Q168 328 162.0 324.5Q156 321 148 320L76 310H161L121 304L88 287L87 214L103 210L118 264L162 280L168 244Q171 236 176 229L132 220H214L184 215Q191 205 198.5 197.0Q206 189 216.0 186.0Q226 183 236 186L281 193L236 162Q208 143 204 136L203 134Q200 129 199.0 126.5Q198 124 198 118V114ZM436 214 327 229Q334 223 337 215Q342 201 338 188L398 189Q414 190 424 201ZM225 329Q242 337 249 357L250 361Q253 371 248.0 380.5Q243 390 232.5 394.5Q222 399 211.5 396.5Q201 394 196 385Q182 363 194 339Q199 330 207.5 327.0Q216 324 225 329Z" fill="#6c7795" transform="scale(1, -1) translate(0, -512)" /></svg>