<?xml version="1.0" encoding="utf-8" ?>
<svg baseProfile="full" height="512px" version="1.1" viewBox="0 0 512 512" width="512px" xmlns="http://www.w3.org/2000/svg" xmlns:ev="http://www.w3.org/2001/xml-events" xmlns:xlink="http://www.w3.org/1999/xlink"><defs /><path d="M512 256 256 512 0 256 256 0ZM364 147Q346 128 322.0 118.5Q298 109 273 109Q238 109 208 127Q230 119 254.5 119.0Q279 119 302.0 128.0Q325 137 343 154Q365 174 376.0 199.5Q387 225 387.0 252.5Q387 280 376.0 305.5Q365 331 343 352Q317 377 280.0 384.0Q243 391 208 378Q246 400 289.5 395.0Q333 390 364 359Q386 337 397.0 309.5Q408 282 408 253Q408 223 396.5 195.5Q385 168 364 147ZM257 157Q254 157 252 157L118 169H256Q269 169 281 173L290 198L274 221H242L226 199L230 186L195 181Q176 198 168 222H181Q184 215 189 207H216L233 229L224 258L197 267L175 251Q175 243 177 237H60L163 250V254Q163 283 180 307L193 304L202 279L227 270L253 288V315L231 331Q223 329 215 324L90 322L242 347Q251 349 259 348Q299 348 326.5 319.5Q354 291 354 251Q354 212 325.5 184.5Q297 157 257 157ZM310 275Q310 275 310 275L290 269L265 287L266 315L288 331Q310 322 325 303L316 277ZM342 249Q342 239 337.5 226.5Q333 214 327 205L300 206L284 228L294 257L320 265Z" fill="#6c7795" transform="scale(1, -1) translate(0, -512)" /></svg>