<?xml version="1.0" encoding="utf-8" ?>
<svg baseProfile="full" height="512px" version="1.1" viewBox="0 0 512 512" width="512px" xmlns="http://www.w3.org/2000/svg" xmlns:ev="http://www.w3.org/2001/xml-events" xmlns:xlink="http://www.w3.org/1999/xlink"><defs /><path d="M256 512 512 256 256 0 0 256ZM196 312 126 232V173H146V130L166 246V173H196ZM386 173V232L316 312V173H346V246L366 130V173ZM256 456H255Q231 427 218.5 392.0Q206 357 206 320V193L246 153H251V250H261V153H266L306 193V319Q306 357 293.0 392.0Q280 427 256 456ZM281 366Q273 380 256.5 380.0Q240 380 231 368Q231 384 238.5 395.0Q246 406 256.0 406.0Q266 406 273.5 394.5Q281 383 281 367ZM256 70 292 109Q304 121 306.0 137.5Q308 154 300 169Q297 155 287 144L256 111L225 144Q215 155 212 169Q204 155 206.0 138.0Q208 121 220 109Z" fill="#6c7795" transform="scale(1, -1) translate(0, -512)" /></svg>