<?xml version="1.0" encoding="utf-8" ?>
<svg baseProfile="full" height="512px" version="1.1" viewBox="0 0 512 512" width="512px" xmlns="http://www.w3.org/2000/svg" xmlns:ev="http://www.w3.org/2001/xml-events" xmlns:xlink="http://www.w3.org/1999/xlink"><defs /><path d="M256 512 512 256 256 0 0 256ZM195 351H134V315H195ZM316 351V315H377V351ZM316 230Q316 204 298.5 186.5Q281 169 255.5 169.0Q230 169 212.5 186.5Q195 204 195 230V295H134V230Q134 196 150.5 168.5Q167 141 194.5 124.5Q222 108 255.5 108.0Q289 108 316.5 124.5Q344 141 360.5 168.5Q377 196 377 230V295H316ZM284 307 303 337H252L262 388L208 304H259L248 251Z" fill="#6c7795" transform="scale(1, -1) translate(0, -512)" /></svg>