<?xml version="1.0" encoding="utf-8" ?>
<svg baseProfile="full" height="512px" version="1.1" viewBox="0 0 512 512" width="512px" xmlns="http://www.w3.org/2000/svg" xmlns:ev="http://www.w3.org/2001/xml-events" xmlns:xlink="http://www.w3.org/1999/xlink"><defs /><path d="M346 346Q344 345 343 343L333 333L337 312L354 304L371 313Q372 329 365 344ZM336 371Q321 377 304 375L296 358L305 341L327 338L340 352L336 370ZM272 306Q270 303 267 296L264 289Q267 283 273.5 276.5Q280 270 287 267L303 276L306 295L290 309L271 306ZM256 512 0 256 256 0 512 256ZM179 138 175 142 139 178 147 186 187 146ZM234 175Q229 171 224 171H223Q219 171 213.5 169.5Q208 168 207 167L190 150L150 190L167 207Q168 209 169.0 214.0Q170 219 169.0 223.0Q168 227 169.5 231.0Q171 235 174 238L191 255Q194 258 198 257L202 255L227 230L221 224Q218 221 215 221Q211 221 209 224L203 229Q202 231 200.0 231.0Q198 231 196.5 229.5Q195 228 195 226L196 214Q196 205 191 200Q189 198 189.5 195.5Q190 193 192.5 192.5Q195 192 197 194Q205 202 205 216Q213 210 221 213Q225 205 234 203Q234 203 234 203Q236 195 242 191L247 189ZM234 236 221 248 242 269 255 257ZM267 238 236 208 224 220 254 251ZM218 251 206 263 224 282 236 270ZM252 193 240 205 264 230 276 217ZM356 268 301 225 354 278 351 296 334 304 315 294 312 275 326 262 319 253Q300 251 282.5 260.0Q265 269 255.5 286.0Q246 303 247 321L257 327L270 314L289 318L298 337L289 354L272 356L195 281L262 360Q270 370 282 376Q306 389 332.5 381.5Q359 374 372 350Q383 329 378.5 306.0Q374 283 356 268Z" fill="#6c7795" transform="scale(1, -1) translate(0, -512)" /></svg>