<?xml version="1.0" encoding="utf-8" ?>
<svg baseProfile="full" height="512px" version="1.1" viewBox="0 0 512 512" width="512px" xmlns="http://www.w3.org/2000/svg" xmlns:ev="http://www.w3.org/2001/xml-events" xmlns:xlink="http://www.w3.org/1999/xlink"><defs /><path d="M512 256 256 512 0 256 256 0ZM190 295Q187 285 175.0 279.5Q163 274 147 276Q134 277 127.0 288.0Q120 299 123.5 311.0Q127 323 138.5 328.0Q150 333 163 327Q196 314 190 295ZM289 225Q282 215 270 212Q265 210 259 210L251 211Q246 211 242 212L192 225L168 187L177 138L164 132L140 182L171 261Q175 272 185.5 276.5Q196 281 207 277L226 266Q242 257 258 252L266 303Q268 314 277 321L347 382Q349 372 344 364L295 302V242Q294 233 289 225ZM363 129Q354 135 352 146L340 212L280 205Q292 208 299 218Q304 225 305 235L306 244L352 242Q360 242 365.0 236.5Q370 231 370 223L365 128ZM268 133 216 155 195 211 228 202 233 177 272 148ZM217 348Q206 359 206.0 374.5Q206 390 217.0 401.0Q228 412 243.5 412.0Q259 412 270.0 401.0Q281 390 281.0 374.5Q281 359 270 348Q259 337 243.5 337.0Q228 337 217 348ZM220 369Q227 370 230 370L239 361L238 351L228 346Q219 350 215 359ZM273 389Q277 380 276 371V370L267 366L257 371L255 383L263 390ZM239 407Q249 408 258 404L259 394L252 386L240 388L235 398ZM244 361Q250 364 255 366L264 361L266 351Q259 344 250 343L242 350ZM219 373 211 381H212Q213 390 220 397L230 395L235 386L230 375Z" fill="#6c7795" transform="scale(1, -1) translate(0, -512)" /></svg>