<?xml version="1.0" encoding="utf-8" ?>
<svg baseProfile="full" height="512px" version="1.1" viewBox="0 0 512 512" width="512px" xmlns="http://www.w3.org/2000/svg" xmlns:ev="http://www.w3.org/2001/xml-events" xmlns:xlink="http://www.w3.org/1999/xlink"><defs /><path d="M256 512 512 256 256 0 0 256ZM262 193 242 214 213 185Q199 171 179.5 171.0Q160 171 146.0 185.0Q132 199 132.0 219.0Q132 239 146 253L165 272L193 245L221 370L122 270Q100 248 100.0 216.0Q100 184 122.5 161.5Q145 139 176.5 139.0Q208 139 231 162ZM348 311 340 303Q338 301 338.0 298.0Q338 295 340.5 292.5Q343 290 346.0 290.0Q349 290 351 292L400 341L389 352L362 325Q351 332 337.5 331.0Q324 330 314 320Q301 307 303 289L244 229L278 195L337 255L341 254Q357 254 368 266Q376 274 378.5 284.5Q381 295 377 306L360 295Q361 286 355.0 280.0Q349 274 341.0 274.0Q333 274 327.5 279.5Q322 285 322.0 293.0Q322 301 327.5 306.5Q333 312 341 312Q345 312 348 311Z" fill="#6c7795" transform="scale(1, -1) translate(0, -512)" /></svg>