<?xml version="1.0" encoding="utf-8" ?>
<svg baseProfile="full" height="512px" version="1.1" viewBox="0 0 512 512" width="512px" xmlns="http://www.w3.org/2000/svg" xmlns:ev="http://www.w3.org/2001/xml-events" xmlns:xlink="http://www.w3.org/1999/xlink"><defs /><path d="M204 352Q205 352 209 351L214 350L222 358Q222 367 215 374L204 373L199 364ZM194 366Q194 366 194 366L200 376L195 386Q186 387 177 384L174 373L182 365ZM256 512 0 256 256 0 512 256ZM161 327Q153 335 151 347L156 350L166 345L176 349L178 361L171 369L160 368Q158 365 157 362L121 327L159 376Q161 379 164 381Q176 392 191.5 391.5Q207 391 218.0 379.0Q229 367 228.0 351.0Q227 335 216 325L190 308L212 328Q215 331 218 335L214 345L203 348L193 339L195 328L200 325L191 314Q180 314 171 319L175 323L182 320L190 328L188 339L178 345L168 340L166 330Q168 327 170 326L136 294L162 326ZM242 301Q255 305 266.0 298.0Q277 291 279 278Q281 261 275.5 248.5Q270 236 260 233Q240 226 226 259Q220 273 225.0 285.0Q230 297 242 301ZM233 182 178 220 164 312 186 306 200 242 233 220 278 216 298 258 287 307 235 350V376L315 317L332 257L359 209L391 187L331 127L233 181Z" fill="#6c7795" transform="scale(1, -1) translate(0, -512)" /></svg>