<?xml version="1.0" encoding="utf-8" ?>
<svg baseProfile="full" height="512px" version="1.1" viewBox="0 0 512 512" width="512px" xmlns="http://www.w3.org/2000/svg" xmlns:ev="http://www.w3.org/2001/xml-events" xmlns:xlink="http://www.w3.org/1999/xlink"><defs /><path d="M512 256 256 512 0 256 256 0ZM370 217H371Q388 205 410 207L420 208L307 108Q286 89 256.0 89.0Q226 89 205 108L92 208L102 207Q124 205 141 217L151 224Q163 232 170 236Q204 257 227 244Q234 240 238.5 232.5Q243 225 243 214Q248 224 248 233V235Q249 249 242.0 261.0Q235 273 222 278Q194 288 162 261Q157 257 147 248L135 237Q127 229 115.0 227.0Q103 225 92 228L164 318L151 347L146 315L133 299L143 376L205 327Q230 336 256.0 336.0Q282 336 307 327L369 376L379 299L366 315L361 347L348 318L420 228Q409 225 397.0 227.5Q385 230 377 237L365 248Q355 257 350 261Q318 288 290 278Q277 273 270.0 261.0Q263 249 264 235V234Q264 224 269 214Q269 225 273.5 232.5Q278 240 285 244Q308 257 342 236Q349 233 361 224ZM319 212Q309 218 299.0 214.5Q289 211 285 200L283 196L324 210ZM227 200Q223 211 213.0 214.5Q203 218 193 212L188 210L229 196ZM262 110Q280 113 293 126L328 162L292 171Q280 174 274.0 185.0Q268 196 256.0 196.0Q244 196 238.0 185.0Q232 174 220 171L184 162L219 126Q232 112 250 110L233 135H279Z" fill="#6c7795" transform="scale(1, -1) translate(0, -512)" /></svg>