<?xml version="1.0" encoding="utf-8" ?>
<svg baseProfile="full" height="512px" version="1.1" viewBox="0 0 512 512" width="512px" xmlns="http://www.w3.org/2000/svg" xmlns:ev="http://www.w3.org/2001/xml-events" xmlns:xlink="http://www.w3.org/1999/xlink"><defs /><path d="M512 256 256 512 0 256 256 0ZM234 396Q276 396 312.5 374.0Q349 352 370.0 315.0Q391 278 391 233V210H436L346 117L256 210H301V234Q301 265 286.0 291.5Q271 318 245.0 334.0Q219 350 188.5 350.0Q158 350 132.0 334.0Q106 318 91.0 291.5Q76 265 76 233Q76 278 97.0 315.0Q118 352 154.5 374.0Q191 396 234 396Z" fill="#6c7795" transform="scale(1, -1) translate(0, -512)" /></svg>